G04*
G04 #@! TF.GenerationSoftware,Altium Limited,Altium Designer,25.2.1 (25)*
G04*
G04 Layer_Physical_Order=1*
G04 Layer_Color=255*
%FSLAX25Y25*%
%MOIN*%
G70*
G04*
G04 #@! TF.SameCoordinates,33EAF51A-26EF-4A86-81AC-10F0C2BF7AB2*
G04*
G04*
G04 #@! TF.FilePolarity,Positive*
G04*
G01*
G75*
%ADD11C,0.02000*%
%ADD16C,0.00600*%
%ADD19R,0.07100X0.04400*%
%ADD20R,0.04400X0.07100*%
%ADD21R,0.13386X0.02362*%
%ADD31O,0.07874X0.14961*%
%ADD32O,0.12992X0.07087*%
%ADD33C,0.07000*%
%ADD34C,0.06378*%
%ADD35C,0.02500*%
D11*
X105319Y77500D02*
X105500Y77681D01*
X105319Y77500D02*
X119100D01*
X34500Y147000D02*
X59500D01*
X68500Y156000D02*
Y176000D01*
X59500Y147000D02*
X68500Y156000D01*
X59622Y176000D02*
X68500D01*
X74000D01*
X90112Y65112D02*
Y74612D01*
X79370Y62500D02*
X87500D01*
X90112Y65112D01*
X20000Y132500D02*
X34500Y147000D01*
X92819Y77319D02*
X100449D01*
X90112Y74612D02*
X92819Y77319D01*
X100449D02*
X100630Y77500D01*
X104000Y97000D02*
Y110000D01*
X103819Y77500D02*
X104000Y77681D01*
X82000Y97000D02*
X104000D01*
Y77681D02*
Y97000D01*
X75000Y90000D02*
X82000Y97000D01*
X50900Y90000D02*
X75000D01*
X103819Y77500D02*
X105319D01*
X74000Y156000D02*
Y176000D01*
Y156000D02*
X79500Y150500D01*
X97000D01*
X104000Y143500D01*
Y120000D02*
Y143500D01*
X131400Y77500D02*
X138000D01*
X90000Y162000D02*
Y169100D01*
X141900Y180900D02*
X150000D01*
X120000Y169100D02*
X130100D01*
X141900Y180900D01*
X90000D02*
X120000D01*
X78900D02*
X90000D01*
X74000Y176000D02*
X78900Y180900D01*
D16*
X157500Y70000D02*
X170000D01*
X155000Y67500D02*
X157500Y70000D01*
X150000Y67500D02*
X155000D01*
X117000Y57000D02*
Y68500D01*
X100630Y72500D02*
X113000D01*
X117000Y68500D01*
X51099Y61901D02*
Y69801D01*
Y61901D02*
X55000Y58000D01*
X59000D01*
X50701Y70199D02*
X51099Y69801D01*
X66500Y45500D02*
X112000D01*
X63500Y48500D02*
X66500Y45500D01*
X112000Y59500D02*
Y67149D01*
X111648Y67500D02*
X112000Y67149D01*
X79500Y54000D02*
X114000D01*
X117000Y57000D01*
X70000Y58000D02*
X75500D01*
X79500Y54000D01*
X63500Y48500D02*
Y52500D01*
X66500Y53000D02*
Y64000D01*
Y53000D02*
X69500Y50000D01*
X66500Y64000D02*
X70000Y67500D01*
X50900Y50000D02*
X61000D01*
X63500Y52500D01*
X69500Y50000D02*
X143500D01*
X150000Y56500D01*
X100630Y67500D02*
X111648D01*
X63500Y52500D02*
Y68000D01*
X68000Y72500D01*
X150000Y67500D02*
Y90000D01*
X50701Y70199D02*
Y74098D01*
X150000Y56500D02*
Y67500D01*
Y90000D02*
X160000Y100000D01*
X70000Y67500D02*
X79370D01*
X68000Y72500D02*
X79370D01*
X50900Y50000D02*
Y54100D01*
X39099Y65901D02*
X50900Y54100D01*
X39099Y65901D02*
Y69099D01*
X39100Y69100D01*
Y85700D02*
X50701Y74098D01*
X39100Y85700D02*
Y90000D01*
Y69100D02*
Y70000D01*
X39000Y41000D02*
Y50000D01*
X39100D01*
X209000Y19500D02*
Y54000D01*
X213000Y15500D02*
X222500D01*
X209000Y19500D02*
X213000Y15500D01*
X209000Y54000D02*
X213400Y58400D01*
X222500D01*
X170000Y100000D02*
X192000D01*
X203000Y89000D02*
X221900D01*
X192000Y100000D02*
X203000Y89000D01*
X221900D02*
X222500Y88400D01*
X282500D02*
X312500D01*
X252500D02*
X282500D01*
X222500D02*
X252500D01*
X312500Y58400D02*
Y76600D01*
X282500Y58400D02*
Y76600D01*
X252500Y58400D02*
Y76600D01*
X222500Y58400D02*
Y76600D01*
X67500Y77500D02*
X79370D01*
X150000Y162000D02*
Y169100D01*
X222500Y40500D02*
Y46600D01*
X252500Y40500D02*
Y46600D01*
X282500Y40500D02*
Y46600D01*
X312500Y40500D02*
Y46600D01*
D19*
Y88400D02*
D03*
Y76600D02*
D03*
X282500Y88400D02*
D03*
Y76600D02*
D03*
X252500Y88400D02*
D03*
Y76600D02*
D03*
X222500Y88400D02*
D03*
Y76600D02*
D03*
X120000Y180900D02*
D03*
Y169100D02*
D03*
X312500Y46600D02*
D03*
Y58400D02*
D03*
X282500Y46600D02*
D03*
Y58400D02*
D03*
X252500Y46600D02*
D03*
Y58400D02*
D03*
X222500Y46600D02*
D03*
Y58400D02*
D03*
X90000Y169100D02*
D03*
Y180900D02*
D03*
X150000D02*
D03*
Y169100D02*
D03*
D20*
X119600Y77500D02*
D03*
X131400D02*
D03*
X39100Y50000D02*
D03*
X50900D02*
D03*
X39100Y70000D02*
D03*
X50900D02*
D03*
X39100Y90000D02*
D03*
X50900D02*
D03*
D21*
X79370Y77500D02*
D03*
Y72500D02*
D03*
Y67500D02*
D03*
Y62500D02*
D03*
X100630D02*
D03*
Y67500D02*
D03*
Y72500D02*
D03*
Y77500D02*
D03*
D31*
X59622Y176000D02*
D03*
X36000D02*
D03*
D32*
X49779Y157693D02*
D03*
D33*
X40000Y132500D02*
D03*
X50000D02*
D03*
X20000D02*
D03*
X30000D02*
D03*
X242500Y15500D02*
D03*
X252500D02*
D03*
X222500D02*
D03*
X232500D02*
D03*
X170000Y60000D02*
D03*
Y70000D02*
D03*
Y40000D02*
D03*
Y50000D02*
D03*
D34*
X104000Y110000D02*
D03*
Y120000D02*
D03*
X170000Y100000D02*
D03*
X160000D02*
D03*
D35*
X59000Y58000D02*
D03*
X112000Y45500D02*
D03*
Y59500D02*
D03*
X70000Y58000D02*
D03*
X138000Y77500D02*
D03*
X90000Y162000D02*
D03*
X39000Y41000D02*
D03*
X150000Y162000D02*
D03*
X67500Y77500D02*
D03*
X312500Y40500D02*
D03*
X282500D02*
D03*
X252500D02*
D03*
X222500D02*
D03*
M02*
