G04*
G04 #@! TF.GenerationSoftware,Altium Limited,Altium Designer,25.2.1 (25)*
G04*
G04 Layer_Color=8421504*
%FSLAX25Y25*%
%MOIN*%
G70*
G04*
G04 #@! TF.SameCoordinates,7AEDDAFA-F4C1-4ABB-908B-76DA138DF952*
G04*
G04*
G04 #@! TF.FilePolarity,Positive*
G04*
G01*
G75*
%ADD19R,0.07100X0.04400*%
%ADD20R,0.04400X0.07100*%
%ADD21R,0.13386X0.02362*%
D19*
X312500Y88400D02*
D03*
Y76600D02*
D03*
X282500Y88400D02*
D03*
Y76600D02*
D03*
X252500Y88400D02*
D03*
Y76600D02*
D03*
X222500Y88400D02*
D03*
Y76600D02*
D03*
X120000Y180900D02*
D03*
Y169100D02*
D03*
X312500Y46600D02*
D03*
Y58400D02*
D03*
X282500Y46600D02*
D03*
Y58400D02*
D03*
X252500Y46600D02*
D03*
Y58400D02*
D03*
X222500Y46600D02*
D03*
Y58400D02*
D03*
X90000Y169100D02*
D03*
Y180900D02*
D03*
X150000D02*
D03*
Y169100D02*
D03*
D20*
X119600Y77500D02*
D03*
X131400D02*
D03*
X39100Y50000D02*
D03*
X50900D02*
D03*
X39100Y70000D02*
D03*
X50900D02*
D03*
X39100Y90000D02*
D03*
X50900D02*
D03*
D21*
X79370Y77500D02*
D03*
Y72500D02*
D03*
Y67500D02*
D03*
Y62500D02*
D03*
X100630D02*
D03*
Y67500D02*
D03*
Y72500D02*
D03*
Y77500D02*
D03*
M02*
