G04*
G04 #@! TF.GenerationSoftware,Altium Limited,Altium Designer,25.2.1 (25)*
G04*
G04 Layer_Color=65535*
%FSLAX25Y25*%
%MOIN*%
G70*
G04*
G04 #@! TF.SameCoordinates,0948289B-1814-4A6B-8373-F98A4FA54AF5*
G04*
G04*
G04 #@! TF.FilePolarity,Positive*
G04*
G01*
G75*
%ADD10C,0.02000*%
%ADD11C,0.01181*%
%ADD12C,0.01575*%
%ADD13C,0.01000*%
%ADD14C,0.01500*%
%ADD15C,0.00600*%
%ADD16C,0.00787*%
%ADD17C,0.00787*%
%ADD18C,0.00500*%
G36*
X311250Y172550D02*
Y172500D01*
Y171600D01*
X310150D01*
Y172700D01*
X311250D01*
Y172550D01*
D02*
G37*
G36*
X305750Y171600D02*
X306850D01*
Y170500D01*
X305750D01*
Y171600D01*
X304650D01*
Y172400D01*
Y172450D01*
Y172700D01*
X305750D01*
Y171600D01*
D02*
G37*
G36*
X300250D02*
X302450D01*
Y169400D01*
X301350D01*
Y170500D01*
X300250D01*
Y168300D01*
X298050D01*
Y169350D01*
X298000D01*
Y169400D01*
X296950D01*
Y168300D01*
X298050D01*
Y167200D01*
X294700D01*
Y168300D01*
X293600D01*
Y169400D01*
X294700D01*
Y168350D01*
Y168300D01*
X295800D01*
Y169400D01*
X294700D01*
Y170500D01*
X293600D01*
Y171250D01*
Y171300D01*
Y172700D01*
X295800D01*
Y171600D01*
X294700D01*
Y170500D01*
X296950D01*
Y171600D01*
X299150D01*
Y172700D01*
X300250D01*
Y171600D01*
D02*
G37*
G36*
X320100D02*
X321200D01*
Y170500D01*
X320100D01*
Y170550D01*
Y171600D01*
X319000D01*
Y167200D01*
X320100D01*
Y169400D01*
X321200D01*
Y163900D01*
X320100D01*
Y164950D01*
X320050D01*
Y165000D01*
X320100D01*
Y166050D01*
X320050D01*
Y166100D01*
X319000D01*
Y163900D01*
X320100D01*
Y162800D01*
X323400D01*
Y159450D01*
X322300D01*
Y158350D01*
X323400D01*
Y155050D01*
X324500D01*
Y152850D01*
X325600D01*
Y151750D01*
X324500D01*
Y152850D01*
X322300D01*
Y153950D01*
X323400D01*
Y155050D01*
X322300D01*
Y156150D01*
X322250D01*
Y156200D01*
X322300D01*
Y157250D01*
X321200D01*
Y156150D01*
X320100D01*
Y155050D01*
X321200D01*
Y153950D01*
X319000D01*
Y155050D01*
X317850D01*
Y153950D01*
X316750D01*
Y155050D01*
X315650D01*
Y156150D01*
X314550D01*
Y155050D01*
X315650D01*
Y153950D01*
X316750D01*
Y152900D01*
X316800D01*
Y152850D01*
X316750D01*
Y151800D01*
X316800D01*
Y151750D01*
X317850D01*
Y152850D01*
X319000D01*
Y148450D01*
X320100D01*
Y147350D01*
X321200D01*
Y146250D01*
X324500D01*
Y145150D01*
X322300D01*
Y144050D01*
X325600D01*
Y142950D01*
X324500D01*
Y141850D01*
X323400D01*
Y142900D01*
X323350D01*
Y142950D01*
X322300D01*
Y144000D01*
X322250D01*
Y144050D01*
X321200D01*
Y145100D01*
X321150D01*
Y145150D01*
X320100D01*
Y146200D01*
X320050D01*
Y146250D01*
X317900D01*
Y146200D01*
X317850D01*
Y145150D01*
X320100D01*
Y144050D01*
X321200D01*
Y140750D01*
X320100D01*
Y141800D01*
X320050D01*
Y141850D01*
X320100D01*
Y142900D01*
X320050D01*
Y142950D01*
X320100D01*
Y144000D01*
X320050D01*
Y144050D01*
X317900D01*
Y144000D01*
X317850D01*
Y142950D01*
X317900D01*
Y142900D01*
X317850D01*
Y141850D01*
X319000D01*
Y140750D01*
X320100D01*
Y139650D01*
X321200D01*
Y138500D01*
X322300D01*
Y137400D01*
X323350D01*
Y137450D01*
X323400D01*
Y137400D01*
X324450D01*
Y137450D01*
X324500D01*
Y138500D01*
X323400D01*
Y139650D01*
X326700D01*
Y137400D01*
X327800D01*
Y136300D01*
X328900D01*
Y137400D01*
X327800D01*
Y140750D01*
X328900D01*
Y139650D01*
X330000D01*
Y135200D01*
X327800D01*
Y134100D01*
X330000D01*
Y131900D01*
X328900D01*
Y133000D01*
X327800D01*
Y131900D01*
X328900D01*
Y130800D01*
X330000D01*
Y130250D01*
Y130200D01*
Y129700D01*
X328900D01*
Y130800D01*
X327800D01*
Y129700D01*
X328900D01*
Y127500D01*
X320100D01*
Y128600D01*
X319000D01*
Y129700D01*
X321200D01*
Y128600D01*
X323400D01*
Y129700D01*
X324500D01*
Y128600D01*
X326700D01*
Y130800D01*
X325600D01*
Y129700D01*
X324500D01*
Y131900D01*
X323400D01*
Y130800D01*
X319000D01*
Y131900D01*
X320050D01*
Y131950D01*
X320100D01*
Y133000D01*
X320050D01*
Y133050D01*
X320100D01*
Y134100D01*
X320050D01*
Y134150D01*
X320100D01*
Y135200D01*
X320050D01*
Y135250D01*
X320100D01*
Y136300D01*
X317850D01*
Y137400D01*
X316750D01*
Y136350D01*
X316800D01*
Y136300D01*
X316750D01*
Y135250D01*
X316800D01*
Y135200D01*
X317850D01*
Y134150D01*
X317900D01*
Y134100D01*
X317850D01*
Y133000D01*
X315650D01*
Y131900D01*
X317850D01*
Y131750D01*
Y131700D01*
Y130850D01*
X317900D01*
Y130800D01*
X317850D01*
Y129750D01*
X317900D01*
Y129700D01*
X317850D01*
Y127500D01*
X316750D01*
Y129700D01*
X315650D01*
Y131900D01*
X314550D01*
Y133000D01*
X313450D01*
Y131900D01*
X314550D01*
Y127500D01*
X312350D01*
Y128600D01*
X313450D01*
Y129700D01*
X311250D01*
Y130800D01*
X309050D01*
Y129700D01*
X311250D01*
Y127500D01*
X310150D01*
Y128600D01*
X307950D01*
Y129700D01*
X306850D01*
Y127500D01*
X305750D01*
Y128600D01*
X304650D01*
Y129700D01*
X305750D01*
Y130800D01*
X302450D01*
Y131900D01*
X306850D01*
Y130800D01*
X307950D01*
Y131900D01*
X306850D01*
Y133000D01*
X303550D01*
Y134100D01*
X304650D01*
Y135200D01*
X302450D01*
Y136300D01*
X301350D01*
Y135200D01*
X300250D01*
Y134100D01*
X299150D01*
Y131900D01*
X300250D01*
Y130800D01*
X302450D01*
Y129700D01*
X300250D01*
Y130800D01*
X298050D01*
Y131900D01*
X298000D01*
Y131950D01*
X298050D01*
Y133000D01*
X296950D01*
Y131350D01*
Y131300D01*
Y130800D01*
X298050D01*
Y129700D01*
X295800D01*
Y134100D01*
X298000D01*
Y134150D01*
X298050D01*
Y135200D01*
X298000D01*
Y135250D01*
X298050D01*
Y136300D01*
X295800D01*
Y137400D01*
X294700D01*
Y138500D01*
X293600D01*
Y137400D01*
X292500D01*
Y138500D01*
X291400D01*
Y139650D01*
X292500D01*
Y140750D01*
X291450D01*
Y140700D01*
X291400D01*
Y140750D01*
X290300D01*
Y141850D01*
X289250D01*
Y141800D01*
X289200D01*
Y140750D01*
X288150D01*
Y140700D01*
X288100D01*
Y139650D01*
X289200D01*
Y137400D01*
X288100D01*
Y139650D01*
X287050D01*
Y139600D01*
X287000D01*
Y139650D01*
X285900D01*
Y141850D01*
X284800D01*
Y144050D01*
X285900D01*
Y141850D01*
X287000D01*
Y143600D01*
Y143650D01*
Y145150D01*
X285900D01*
Y146250D01*
X287000D01*
Y147350D01*
X284800D01*
Y148950D01*
Y149000D01*
Y149550D01*
X285900D01*
Y150650D01*
X284800D01*
Y151750D01*
X285900D01*
Y150650D01*
X287000D01*
Y149550D01*
X291400D01*
Y148450D01*
X292500D01*
Y147350D01*
X291400D01*
Y148300D01*
Y148350D01*
Y148450D01*
X290300D01*
Y147350D01*
X289200D01*
Y148450D01*
X287000D01*
Y147350D01*
X288100D01*
Y142950D01*
X290300D01*
Y141850D01*
X292500D01*
Y140750D01*
X293600D01*
Y141850D01*
X294700D01*
Y142950D01*
X293650D01*
Y142900D01*
X293600D01*
Y142950D01*
X292550D01*
Y142900D01*
X292500D01*
Y142950D01*
X291400D01*
Y144050D01*
X289200D01*
Y145150D01*
X291400D01*
Y144050D01*
X292500D01*
Y145150D01*
X291400D01*
Y145900D01*
Y145950D01*
Y146250D01*
X292500D01*
Y145150D01*
X293600D01*
Y146250D01*
X294700D01*
Y147350D01*
X293600D01*
Y147700D01*
Y147750D01*
Y148450D01*
X292500D01*
Y149550D01*
X291400D01*
Y150650D01*
X293600D01*
Y149550D01*
X294700D01*
Y147350D01*
X295800D01*
Y146250D01*
X294750D01*
Y146200D01*
X294700D01*
Y145150D01*
X296950D01*
Y144050D01*
X299150D01*
Y145100D01*
X299100D01*
Y145150D01*
X298050D01*
Y146200D01*
X298000D01*
Y146250D01*
X296950D01*
Y147350D01*
X298050D01*
Y146250D01*
X299150D01*
Y147350D01*
X300250D01*
Y141850D01*
X299150D01*
Y141800D01*
X299100D01*
Y141850D01*
X298050D01*
Y142900D01*
X298000D01*
Y142950D01*
X296950D01*
Y141850D01*
X298050D01*
Y140750D01*
X296950D01*
Y141800D01*
X296900D01*
Y141850D01*
X295850D01*
Y141800D01*
X295800D01*
Y140750D01*
X296950D01*
Y139650D01*
X298050D01*
Y138500D01*
X299100D01*
Y138550D01*
X299150D01*
Y139600D01*
X299100D01*
Y139650D01*
X299150D01*
Y140750D01*
X302450D01*
Y141800D01*
X302400D01*
Y141850D01*
X301350D01*
Y142950D01*
X302450D01*
Y141850D01*
X303550D01*
Y140750D01*
X304650D01*
Y138500D01*
X305700D01*
Y138550D01*
X305750D01*
Y140750D01*
X304650D01*
Y141100D01*
Y141150D01*
Y141850D01*
X305750D01*
Y140750D01*
X306850D01*
Y139650D01*
X307950D01*
Y136300D01*
X310150D01*
Y137400D01*
X309050D01*
Y138500D01*
X310150D01*
Y137400D01*
X311250D01*
Y135200D01*
X312350D01*
Y137400D01*
X311250D01*
Y138500D01*
X310150D01*
Y140750D01*
X307950D01*
Y141850D01*
X305750D01*
Y144050D01*
X306850D01*
Y146250D01*
X305750D01*
Y148450D01*
X304650D01*
Y149550D01*
X302450D01*
Y151750D01*
X301350D01*
Y152850D01*
X300250D01*
Y151750D01*
X301350D01*
Y151150D01*
Y151100D01*
Y150650D01*
X300250D01*
Y151750D01*
X299150D01*
Y153950D01*
X300200D01*
Y154000D01*
X300250D01*
Y155050D01*
X299150D01*
Y156150D01*
X301350D01*
Y155050D01*
X302450D01*
Y151750D01*
X303550D01*
Y155050D01*
X302450D01*
Y157250D01*
X300250D01*
Y158350D01*
X301300D01*
Y158400D01*
X301350D01*
Y159450D01*
X299150D01*
Y158350D01*
X298050D01*
Y155050D01*
X296950D01*
Y153950D01*
X298050D01*
Y151750D01*
X299150D01*
Y150650D01*
X300250D01*
Y149550D01*
X302450D01*
Y145150D01*
X303550D01*
Y147350D01*
X304650D01*
Y147100D01*
Y147050D01*
Y146250D01*
X305750D01*
Y145150D01*
X304650D01*
Y144050D01*
X303550D01*
Y142950D01*
X302450D01*
Y144000D01*
X302400D01*
Y144050D01*
X301350D01*
Y147350D01*
X300250D01*
Y149550D01*
X294700D01*
Y150650D01*
X295800D01*
Y155050D01*
X293600D01*
Y156150D01*
X291400D01*
Y157250D01*
X290300D01*
Y158350D01*
X289200D01*
Y159450D01*
X288100D01*
Y158350D01*
X287000D01*
Y160550D01*
X288100D01*
Y160600D01*
X288150D01*
Y160550D01*
X289200D01*
Y159500D01*
X289250D01*
Y159450D01*
X290300D01*
Y158400D01*
X290350D01*
Y158350D01*
X291400D01*
Y157300D01*
X291450D01*
Y157250D01*
X292500D01*
Y158350D01*
X291400D01*
Y159450D01*
X292500D01*
Y158400D01*
X292550D01*
Y158350D01*
X293600D01*
Y159450D01*
X292500D01*
Y160550D01*
X291400D01*
Y161700D01*
X292500D01*
Y160600D01*
X292550D01*
Y160550D01*
X293600D01*
Y160600D01*
X293650D01*
Y160550D01*
X294700D01*
Y160600D01*
X294750D01*
Y160550D01*
X295800D01*
Y159450D01*
X294700D01*
Y158400D01*
X294750D01*
Y158350D01*
X295800D01*
Y157300D01*
X295850D01*
Y157250D01*
X296900D01*
Y157300D01*
X296950D01*
Y158350D01*
X298000D01*
Y158400D01*
X298050D01*
Y159450D01*
X298000D01*
Y159500D01*
X298050D01*
Y160550D01*
X299100D01*
Y160600D01*
X299150D01*
Y161650D01*
X299100D01*
Y161700D01*
X299150D01*
Y162800D01*
X300250D01*
Y161700D01*
X301350D01*
Y161400D01*
Y161350D01*
Y160550D01*
X302400D01*
Y160600D01*
X302450D01*
Y162750D01*
X302400D01*
Y162800D01*
X301350D01*
Y164950D01*
X301300D01*
Y165000D01*
X300250D01*
Y166100D01*
X301350D01*
Y165000D01*
X302450D01*
Y166100D01*
X301350D01*
Y168300D01*
X302450D01*
Y166100D01*
X303550D01*
Y161700D01*
X305750D01*
Y160550D01*
X306800D01*
Y160600D01*
X306850D01*
Y161700D01*
X305750D01*
Y163900D01*
X304650D01*
Y168300D01*
X305750D01*
Y167200D01*
X306850D01*
Y168300D01*
X307950D01*
Y167200D01*
X309050D01*
Y166100D01*
X310150D01*
Y163900D01*
X311250D01*
Y167200D01*
X310150D01*
Y167400D01*
Y167450D01*
Y168300D01*
X309050D01*
Y169400D01*
X307950D01*
Y172700D01*
X309050D01*
Y171600D01*
X310150D01*
Y169400D01*
X313450D01*
Y168300D01*
X311250D01*
Y167200D01*
X315650D01*
Y169400D01*
X313450D01*
Y170500D01*
X314550D01*
Y171600D01*
X313450D01*
Y172700D01*
X315650D01*
Y169400D01*
X317850D01*
Y171600D01*
X316750D01*
Y172700D01*
X320100D01*
Y171600D01*
D02*
G37*
G36*
X304650Y169400D02*
X303550D01*
Y169500D01*
Y169550D01*
Y170500D01*
X304650D01*
Y169400D01*
D02*
G37*
G36*
X330000Y165000D02*
X322300D01*
Y172700D01*
X330000D01*
Y165000D01*
D02*
G37*
G36*
X296950D02*
X295850D01*
Y164950D01*
X295800D01*
Y163900D01*
X296950D01*
Y161700D01*
X295850D01*
Y161650D01*
X295800D01*
Y161700D01*
X294750D01*
Y161650D01*
X294700D01*
Y161700D01*
X293600D01*
Y161800D01*
Y161850D01*
Y162800D01*
X294700D01*
Y165000D01*
X293600D01*
Y166100D01*
X294700D01*
Y165950D01*
Y165900D01*
Y165000D01*
X295800D01*
Y166100D01*
X296950D01*
Y165000D01*
D02*
G37*
G36*
X292500Y172600D02*
Y172550D01*
Y165000D01*
X284800D01*
Y172700D01*
X292500D01*
Y172600D01*
D02*
G37*
G36*
X299150Y166050D02*
Y166000D01*
Y163900D01*
X298050D01*
Y164950D01*
X298000D01*
Y165000D01*
X298050D01*
Y166100D01*
X299150D01*
Y166050D01*
D02*
G37*
G36*
X330000Y161700D02*
X328900D01*
Y160600D01*
X328950D01*
Y160550D01*
X330000D01*
Y155050D01*
X328900D01*
Y155350D01*
Y155400D01*
Y156150D01*
X325600D01*
Y157250D01*
X327800D01*
Y158350D01*
X328900D01*
Y159450D01*
X326700D01*
Y160550D01*
X325600D01*
Y162750D01*
X325550D01*
Y162800D01*
X324500D01*
Y162750D01*
X324450D01*
Y162800D01*
X323400D01*
Y163900D01*
X326700D01*
Y162800D01*
X327800D01*
Y163900D01*
X330000D01*
Y161700D01*
D02*
G37*
G36*
X292500Y163850D02*
Y163800D01*
Y162800D01*
X291400D01*
Y163900D01*
X292500D01*
Y163850D01*
D02*
G37*
G36*
X289200Y162800D02*
X290300D01*
Y161700D01*
X289250D01*
Y161650D01*
X289200D01*
Y161700D01*
X288100D01*
Y162050D01*
Y162100D01*
Y163900D01*
X289200D01*
Y162800D01*
D02*
G37*
G36*
X326700Y158350D02*
X325600D01*
Y159450D01*
X326700D01*
Y158350D01*
D02*
G37*
G36*
X287000Y161700D02*
X285900D01*
Y158350D01*
X284800D01*
Y158500D01*
Y158550D01*
Y162800D01*
X287000D01*
Y161700D01*
D02*
G37*
G36*
X291400Y155050D02*
X292500D01*
Y153950D01*
X291400D01*
Y155050D01*
X290300D01*
Y153950D01*
X291400D01*
Y152850D01*
X293600D01*
Y153950D01*
X294700D01*
Y151750D01*
X291400D01*
Y152850D01*
X290300D01*
Y153300D01*
Y153350D01*
Y153950D01*
X289200D01*
Y156150D01*
X291400D01*
Y155050D01*
D02*
G37*
G36*
X285900Y153950D02*
X284800D01*
Y155050D01*
X285900D01*
Y153950D01*
D02*
G37*
G36*
X288100Y152850D02*
X290300D01*
Y151750D01*
X288100D01*
Y150650D01*
X287000D01*
Y151200D01*
Y151250D01*
Y157250D01*
X288100D01*
Y152850D01*
D02*
G37*
G36*
X324500Y151350D02*
Y151300D01*
Y150650D01*
X325600D01*
Y149550D01*
X324500D01*
Y149800D01*
Y149850D01*
Y150650D01*
X323400D01*
Y151750D01*
X324500D01*
Y151350D01*
D02*
G37*
G36*
X325600Y155050D02*
X326700D01*
Y153950D01*
X330000D01*
Y151750D01*
X328900D01*
Y149550D01*
X330000D01*
Y148450D01*
X328900D01*
Y147350D01*
X330000D01*
Y146250D01*
X328900D01*
Y145150D01*
X326700D01*
Y146250D01*
X325600D01*
Y147350D01*
X323400D01*
Y148450D01*
X322300D01*
Y149550D01*
X321200D01*
Y150650D01*
X320100D01*
Y150900D01*
Y150950D01*
Y152850D01*
X322300D01*
Y151750D01*
X321200D01*
Y150650D01*
X323400D01*
Y149550D01*
X324500D01*
Y148450D01*
X327800D01*
Y149550D01*
X326700D01*
Y150650D01*
X327800D01*
Y152850D01*
X325600D01*
Y155050D01*
X324500D01*
Y156150D01*
X325600D01*
Y155050D01*
D02*
G37*
G36*
X321200Y148450D02*
X320100D01*
Y149000D01*
Y149050D01*
Y149550D01*
X321200D01*
Y148450D01*
D02*
G37*
G36*
X326700Y144050D02*
X325600D01*
Y145150D01*
X326700D01*
Y144050D01*
D02*
G37*
G36*
X330000Y142950D02*
X327800D01*
Y144050D01*
X330000D01*
Y142950D01*
D02*
G37*
G36*
X285900Y138500D02*
X284800D01*
Y139650D01*
X285900D01*
Y138500D01*
D02*
G37*
G36*
X291450Y137400D02*
X292500D01*
Y136300D01*
X290300D01*
Y137400D01*
X291400D01*
Y137450D01*
X291450D01*
Y137400D01*
D02*
G37*
G36*
X288100Y136300D02*
X287000D01*
Y137400D01*
X288100D01*
Y136300D01*
D02*
G37*
G36*
X285900D02*
X284800D01*
Y137350D01*
Y137400D01*
X285900D01*
Y136300D01*
D02*
G37*
G36*
X294750D02*
X295800D01*
Y136100D01*
Y136050D01*
Y135200D01*
X293600D01*
Y136300D01*
X294700D01*
Y136350D01*
X294750D01*
Y136300D01*
D02*
G37*
G36*
X302450Y133050D02*
Y133000D01*
X301350D01*
Y134100D01*
X302450D01*
Y133050D01*
D02*
G37*
G36*
X294700Y131800D02*
Y131750D01*
Y130800D01*
X293600D01*
Y131900D01*
X294700D01*
Y131800D01*
D02*
G37*
G36*
X304650Y127600D02*
Y127550D01*
Y127500D01*
X303550D01*
Y128600D01*
X304650D01*
Y127600D01*
D02*
G37*
G36*
X300250Y128600D02*
X302450D01*
Y127500D01*
X300250D01*
Y128350D01*
Y128400D01*
Y128600D01*
X299150D01*
Y129700D01*
X300250D01*
Y128600D01*
D02*
G37*
G36*
X292500Y127500D02*
X284800D01*
Y135200D01*
X292500D01*
Y127500D01*
D02*
G37*
%LPC*%
G36*
X317850Y168300D02*
X316800D01*
Y168250D01*
X316750D01*
Y167550D01*
Y167500D01*
Y167200D01*
X317850D01*
Y168300D01*
D02*
G37*
G36*
Y166100D02*
X316800D01*
Y166050D01*
X316750D01*
Y165000D01*
X317850D01*
Y166100D01*
D02*
G37*
G36*
X313450D02*
X312400D01*
Y166050D01*
X312350D01*
Y165700D01*
Y165650D01*
Y165000D01*
X313450D01*
Y166100D01*
D02*
G37*
G36*
X309050D02*
X307950D01*
Y165000D01*
X309050D01*
Y166100D01*
D02*
G37*
G36*
X306850D02*
X305750D01*
Y165000D01*
X306850D01*
Y166100D01*
D02*
G37*
G36*
X315650D02*
X314600D01*
Y166050D01*
X314550D01*
Y165000D01*
X313500D01*
Y164950D01*
X313450D01*
Y163900D01*
X316750D01*
Y165000D01*
X315650D01*
Y166100D01*
D02*
G37*
G36*
X318950Y163900D02*
X317900D01*
Y163850D01*
X317850D01*
Y163900D01*
X316800D01*
Y163850D01*
X316750D01*
Y162800D01*
X317850D01*
Y161700D01*
X317900D01*
Y161650D01*
X317850D01*
Y160600D01*
X317900D01*
Y160550D01*
X318950D01*
Y160600D01*
X319000D01*
Y161700D01*
X320100D01*
Y160550D01*
X319000D01*
Y159450D01*
X320100D01*
Y158350D01*
X319000D01*
Y156150D01*
X320050D01*
Y156200D01*
X320100D01*
Y157250D01*
X321150D01*
Y157300D01*
X321200D01*
Y158350D01*
X321150D01*
Y158400D01*
X321200D01*
Y159450D01*
X321150D01*
Y159500D01*
X321200D01*
Y160550D01*
X321150D01*
Y160600D01*
X321200D01*
Y161100D01*
Y161150D01*
Y161650D01*
X321150D01*
Y161700D01*
X320100D01*
Y162750D01*
X320050D01*
Y162800D01*
X319000D01*
Y163850D01*
X318950D01*
Y163900D01*
D02*
G37*
G36*
X310150D02*
X309050D01*
Y162800D01*
X310150D01*
Y163900D01*
D02*
G37*
G36*
X307950D02*
X306850D01*
Y163350D01*
Y163300D01*
Y162800D01*
X307950D01*
Y161700D01*
X309050D01*
Y162800D01*
X307950D01*
Y163900D01*
D02*
G37*
G36*
X311250Y161700D02*
X310200D01*
Y161650D01*
X310150D01*
Y161700D01*
X309100D01*
Y161650D01*
X309050D01*
Y160550D01*
X307950D01*
Y159450D01*
X310150D01*
Y158350D01*
X312350D01*
Y158400D01*
X312400D01*
Y158350D01*
X313450D01*
Y160550D01*
X311250D01*
Y161700D01*
D02*
G37*
G36*
X313450Y163900D02*
X312400D01*
Y163850D01*
X312350D01*
Y162800D01*
X311300D01*
Y162750D01*
X311250D01*
Y161700D01*
X313450D01*
Y160600D01*
X313500D01*
Y160550D01*
X314550D01*
Y160600D01*
X314600D01*
Y160550D01*
X315650D01*
Y162800D01*
X314600D01*
Y162750D01*
X314550D01*
Y162800D01*
X313450D01*
Y163900D01*
D02*
G37*
G36*
X317850Y160550D02*
X316750D01*
Y159500D01*
X316800D01*
Y159450D01*
X317850D01*
Y160550D01*
D02*
G37*
G36*
X305750D02*
X304650D01*
Y159450D01*
X305700D01*
Y159500D01*
X305750D01*
Y160550D01*
D02*
G37*
G36*
X307950Y159450D02*
X306850D01*
Y158350D01*
X304650D01*
Y159450D01*
X302450D01*
Y157250D01*
X303550D01*
Y157200D01*
Y157150D01*
Y156150D01*
X304650D01*
Y152850D01*
X305750D01*
Y151750D01*
X306850D01*
Y150650D01*
X307950D01*
Y149550D01*
X306850D01*
Y150350D01*
Y150400D01*
Y150650D01*
X305750D01*
Y151750D01*
X304650D01*
Y150650D01*
X305750D01*
Y149550D01*
X306850D01*
Y148450D01*
X307950D01*
Y147350D01*
X306850D01*
Y146250D01*
X307950D01*
Y142950D01*
X309050D01*
Y144050D01*
X310150D01*
Y142950D01*
X312350D01*
Y141850D01*
X314550D01*
Y142950D01*
X315650D01*
Y144050D01*
X316750D01*
Y146250D01*
X317850D01*
Y149550D01*
X315650D01*
Y153950D01*
X314550D01*
Y155050D01*
X313450D01*
Y154000D01*
X313500D01*
Y153950D01*
X314550D01*
Y152850D01*
X313450D01*
Y151750D01*
X314550D01*
Y151050D01*
Y151000D01*
Y149550D01*
X313450D01*
Y151750D01*
X311250D01*
Y152850D01*
X310150D01*
Y153950D01*
X309050D01*
Y152850D01*
X310150D01*
Y151750D01*
X311250D01*
Y150650D01*
X312350D01*
Y147350D01*
X311250D01*
Y146250D01*
X313450D01*
Y146800D01*
Y146850D01*
Y148450D01*
X314550D01*
Y147350D01*
X315650D01*
Y145150D01*
X313500D01*
Y145100D01*
X313450D01*
Y144050D01*
X311250D01*
Y146250D01*
X309050D01*
Y150650D01*
X310150D01*
Y148450D01*
X311250D01*
Y150650D01*
X310150D01*
Y151150D01*
Y151200D01*
Y151750D01*
X309050D01*
Y152850D01*
X307950D01*
Y153950D01*
X305750D01*
Y155050D01*
X309050D01*
Y156150D01*
X307950D01*
Y159450D01*
D02*
G37*
G36*
X315650D02*
X314550D01*
Y158400D01*
X314600D01*
Y158350D01*
X315650D01*
Y157300D01*
X315700D01*
Y157250D01*
X316750D01*
Y156450D01*
Y156400D01*
Y156200D01*
X316800D01*
Y156150D01*
X317850D01*
Y157250D01*
X316750D01*
Y158350D01*
X315650D01*
Y159450D01*
D02*
G37*
G36*
X310150Y158350D02*
X309050D01*
Y156150D01*
X313450D01*
Y157250D01*
X310150D01*
Y158350D01*
D02*
G37*
G36*
X294700Y157250D02*
X293600D01*
Y156200D01*
X293650D01*
Y156150D01*
X294700D01*
Y157250D01*
D02*
G37*
G36*
X312350Y155050D02*
X310150D01*
Y153950D01*
X312350D01*
Y155050D01*
D02*
G37*
G36*
X294700Y145150D02*
X293650D01*
Y145100D01*
X293600D01*
Y144050D01*
X294700D01*
Y145150D01*
D02*
G37*
G36*
X316750Y142950D02*
X315700D01*
Y142900D01*
X315650D01*
Y141850D01*
X316750D01*
Y142950D01*
D02*
G37*
G36*
X311250Y141850D02*
X310200D01*
Y141800D01*
X310150D01*
Y140750D01*
X311250D01*
Y141850D01*
D02*
G37*
G36*
X317850Y140750D02*
X316800D01*
Y140700D01*
X316750D01*
Y140750D01*
X315700D01*
Y140700D01*
X315650D01*
Y139650D01*
X314600D01*
Y139600D01*
X314550D01*
Y139650D01*
X313500D01*
Y139600D01*
X313450D01*
Y137450D01*
X313500D01*
Y137400D01*
X314550D01*
Y136350D01*
X314600D01*
Y136300D01*
X315650D01*
Y137400D01*
X314550D01*
Y138500D01*
X315650D01*
Y138550D01*
X315700D01*
Y138500D01*
X316750D01*
Y138550D01*
X316800D01*
Y138500D01*
X317850D01*
Y138550D01*
X317900D01*
Y138500D01*
X318950D01*
Y138550D01*
X319000D01*
Y138600D01*
Y138650D01*
Y139600D01*
X318950D01*
Y139650D01*
X317850D01*
Y140750D01*
D02*
G37*
G36*
X312350D02*
X311300D01*
Y140700D01*
X311250D01*
Y139650D01*
Y139600D01*
Y138550D01*
X311300D01*
Y138500D01*
X312350D01*
Y140750D01*
D02*
G37*
G36*
X296900Y139650D02*
X295850D01*
Y139600D01*
X295800D01*
Y138550D01*
X295850D01*
Y138500D01*
X295800D01*
Y137450D01*
X295850D01*
Y137400D01*
X296900D01*
Y137450D01*
X296950D01*
Y138500D01*
X296900D01*
Y138550D01*
X296950D01*
Y139600D01*
X296900D01*
Y139650D01*
D02*
G37*
G36*
X303500D02*
X302450D01*
Y136300D01*
X303500D01*
Y136350D01*
X303550D01*
Y139600D01*
X303500D01*
Y139650D01*
D02*
G37*
G36*
X300250Y138500D02*
X299150D01*
Y136450D01*
Y136400D01*
Y135200D01*
X300200D01*
Y135250D01*
X300250D01*
Y136300D01*
X301300D01*
Y136350D01*
X301350D01*
Y137400D01*
X300250D01*
Y138500D01*
D02*
G37*
G36*
X315650Y135200D02*
X313450D01*
Y134150D01*
X313500D01*
Y134100D01*
X315650D01*
Y135200D01*
D02*
G37*
G36*
X326700Y137400D02*
X325600D01*
Y133000D01*
X326700D01*
Y137400D01*
D02*
G37*
G36*
X324500Y136300D02*
X321200D01*
Y133000D01*
X324500D01*
Y136300D01*
D02*
G37*
G36*
X306850Y138500D02*
X305750D01*
Y137400D01*
X304650D01*
Y135200D01*
X305750D01*
Y134100D01*
X306850D01*
Y133000D01*
X312350D01*
Y134100D01*
X311250D01*
Y135200D01*
X310150D01*
Y134100D01*
X309050D01*
Y135200D01*
X307950D01*
Y134100D01*
X306850D01*
Y135200D01*
X305750D01*
Y136300D01*
X306850D01*
Y138500D01*
D02*
G37*
%LPD*%
G36*
Y156150D02*
X304650D01*
Y157250D01*
X306850D01*
Y156150D01*
D02*
G37*
G36*
X323400Y135150D02*
Y135100D01*
Y134100D01*
X322300D01*
Y135200D01*
X323400D01*
Y135150D01*
D02*
G37*
%LPC*%
G36*
X328900Y171600D02*
X323400D01*
Y166100D01*
X328900D01*
Y166650D01*
Y166700D01*
Y171600D01*
D02*
G37*
%LPD*%
G36*
X327800Y167200D02*
X324500D01*
Y170500D01*
X327800D01*
Y167200D01*
D02*
G37*
%LPC*%
G36*
X291400Y171600D02*
X285900D01*
Y166100D01*
X291400D01*
Y171600D01*
D02*
G37*
%LPD*%
G36*
X290300Y168200D02*
Y168150D01*
Y167200D01*
X287000D01*
Y170500D01*
X290300D01*
Y168200D01*
D02*
G37*
%LPC*%
G36*
X291400Y134100D02*
X285900D01*
Y128600D01*
X291400D01*
Y134100D01*
D02*
G37*
%LPD*%
G36*
X290300Y129700D02*
X287000D01*
Y133000D01*
X290300D01*
Y129700D01*
D02*
G37*
D10*
X104656Y131411D02*
G03*
X104656Y131411I-500J0D01*
G01*
X149089Y100155D02*
G03*
X149089Y100155I-500J0D01*
G01*
X79764Y81500D02*
G03*
X79764Y81500I-492J0D01*
G01*
D11*
X88794Y77300D02*
G03*
X88794Y77300I-394J0D01*
G01*
D12*
X70609Y175900D02*
G03*
X70609Y175900I-787J0D01*
G01*
D13*
X27750Y126000D02*
X32250D01*
X30000D02*
Y127027D01*
X28750Y124500D02*
X31250D01*
X29523Y123000D02*
X30250D01*
X37750Y126000D02*
X42250D01*
X40000D02*
Y127027D01*
X38750Y124500D02*
X41250D01*
X39523Y123000D02*
X40250D01*
X47750Y126000D02*
X52250D01*
X50000D02*
Y127027D01*
X48750Y124500D02*
X51250D01*
X49523Y123000D02*
X50250D01*
X309900Y72600D02*
X315500D01*
X279900D02*
X285500D01*
X249900D02*
X255500D01*
X219900D02*
X225500D01*
X117400Y165100D02*
X123000D01*
X230250Y9000D02*
X234750D01*
X232500D02*
Y10027D01*
X231250Y7500D02*
X233750D01*
X232023Y6000D02*
X232750D01*
X240250Y9000D02*
X244750D01*
X242500D02*
Y10027D01*
X241250Y7500D02*
X243750D01*
X242023Y6000D02*
X242750D01*
X250250Y9000D02*
X254750D01*
X252500D02*
Y10027D01*
X251250Y7500D02*
X253750D01*
X252023Y6000D02*
X252750D01*
X36091Y176000D02*
X36122D01*
X160500Y39750D02*
Y40477D01*
X162000Y38750D02*
Y41250D01*
X163500Y40000D02*
X164527D01*
X163500Y37750D02*
Y42250D01*
X160500Y49750D02*
Y50477D01*
X162000Y48750D02*
Y51250D01*
X163500Y50000D02*
X164527D01*
X163500Y47750D02*
Y52250D01*
X160500Y59750D02*
Y60477D01*
X162000Y58750D02*
Y61250D01*
X163500Y60000D02*
X164527D01*
X163500Y57750D02*
Y62250D01*
X113666Y159999D02*
X111000D01*
Y157999D01*
X112333Y158666D01*
X112999D01*
X113666Y157999D01*
Y156667D01*
X112999Y156000D01*
X111667D01*
X111000Y156667D01*
X114999Y159999D02*
Y157333D01*
X116332Y156000D01*
X117665Y157333D01*
Y159999D01*
X124996D02*
X123663D01*
X122996Y159332D01*
Y156667D01*
X123663Y156000D01*
X124996D01*
X125662Y156667D01*
Y159332D01*
X124996Y159999D01*
X126995Y156000D02*
Y158666D01*
X128994D01*
X129661Y157999D01*
Y156000D01*
X181000Y109999D02*
Y106000D01*
X183666D01*
X187664Y109999D02*
X184999D01*
Y106000D01*
X187664D01*
X184999Y107999D02*
X186332D01*
X188997Y109999D02*
Y106000D01*
X190997D01*
X191663Y106667D01*
Y109332D01*
X190997Y109999D01*
X188997D01*
X198994D02*
X197661D01*
X196995Y109332D01*
Y106667D01*
X197661Y106000D01*
X198994D01*
X199661Y106667D01*
Y109332D01*
X198994Y109999D01*
X200994Y106000D02*
Y108666D01*
X202993D01*
X203659Y107999D01*
Y106000D01*
X204992D02*
X207658Y108666D01*
X210990Y109999D02*
X209657D01*
X208991Y109332D01*
Y106667D01*
X209657Y106000D01*
X210990D01*
X211657Y106667D01*
Y109332D01*
X210990Y109999D01*
X213656Y106000D02*
Y109332D01*
Y107999D01*
X212990D01*
X214323D01*
X213656D01*
Y109332D01*
X214323Y109999D01*
X216988Y106000D02*
Y109332D01*
Y107999D01*
X216322D01*
X217655D01*
X216988D01*
Y109332D01*
X217655Y109999D01*
X116166Y127499D02*
X113500D01*
Y125499D01*
X114833Y126166D01*
X115499D01*
X116166Y125499D01*
Y124167D01*
X115499Y123500D01*
X114166D01*
X113500Y124167D01*
X120165Y127499D02*
X117499D01*
Y125499D01*
X118832Y126166D01*
X119498D01*
X120165Y125499D01*
Y124167D01*
X119498Y123500D01*
X118165D01*
X117499Y124167D01*
X124163Y127499D02*
X121497D01*
Y125499D01*
X122830Y126166D01*
X123497D01*
X124163Y125499D01*
Y124167D01*
X123497Y123500D01*
X122164D01*
X121497Y124167D01*
X131494Y127499D02*
X130161D01*
X129495Y126832D01*
Y124167D01*
X130161Y123500D01*
X131494D01*
X132161Y124167D01*
Y126832D01*
X131494Y127499D01*
X133494Y123500D02*
Y126166D01*
X135493D01*
X136159Y125499D01*
Y123500D01*
X137492D02*
X140158Y126166D01*
X143490Y127499D02*
X142157D01*
X141491Y126832D01*
Y124167D01*
X142157Y123500D01*
X143490D01*
X144157Y124167D01*
Y126832D01*
X143490Y127499D01*
X146156Y123500D02*
Y126832D01*
Y125499D01*
X145490D01*
X146823D01*
X146156D01*
Y126832D01*
X146823Y127499D01*
X149488Y123500D02*
Y126832D01*
Y125499D01*
X148822D01*
X150155D01*
X149488D01*
Y126832D01*
X150155Y127499D01*
X151166Y17499D02*
X148500D01*
Y15499D01*
X149833Y16166D01*
X150499D01*
X151166Y15499D01*
Y14166D01*
X150499Y13500D01*
X149167D01*
X148500Y14166D01*
X152499Y16832D02*
X153165Y17499D01*
X154498D01*
X155165Y16832D01*
Y14166D01*
X154498Y13500D01*
X153165D01*
X152499Y14166D01*
Y16832D01*
X162496Y17499D02*
X161163D01*
X160496Y16832D01*
Y14166D01*
X161163Y13500D01*
X162496D01*
X163162Y14166D01*
Y16832D01*
X162496Y17499D01*
X164495D02*
Y13500D01*
Y15499D01*
X165161Y16166D01*
X166494D01*
X167161Y15499D01*
Y13500D01*
X168494D02*
Y16166D01*
X169160D01*
X169826Y15499D01*
Y13500D01*
Y15499D01*
X170493Y16166D01*
X171159Y15499D01*
Y13500D01*
X176491D02*
Y17499D01*
X178490D01*
X179157Y16832D01*
Y15499D01*
X178490Y14833D01*
X176491D01*
X177824D02*
X179157Y13500D01*
X182489D02*
X181156D01*
X180490Y14166D01*
Y15499D01*
X181156Y16166D01*
X182489D01*
X183156Y15499D01*
Y14833D01*
X180490D01*
X184488Y13500D02*
X186488D01*
X187154Y14166D01*
X186488Y14833D01*
X185155D01*
X184488Y15499D01*
X185155Y16166D01*
X187154D01*
X188487Y13500D02*
X189820D01*
X189154D01*
Y16166D01*
X188487D01*
X191819Y13500D02*
X193819D01*
X194485Y14166D01*
X193819Y14833D01*
X192486D01*
X191819Y15499D01*
X192486Y16166D01*
X194485D01*
X196484Y16832D02*
Y16166D01*
X195818D01*
X197151D01*
X196484D01*
Y14166D01*
X197151Y13500D01*
X199817D02*
X201150D01*
X201816Y14166D01*
Y15499D01*
X201150Y16166D01*
X199817D01*
X199150Y15499D01*
Y14166D01*
X199817Y13500D01*
X203149Y16166D02*
Y13500D01*
Y14833D01*
X203816Y15499D01*
X204482Y16166D01*
X205148D01*
X182999Y66332D02*
X181667D01*
X181000Y65665D01*
Y62999D01*
X181667Y62333D01*
X182999D01*
X183666Y62999D01*
Y65665D01*
X182999Y66332D01*
X184999Y64999D02*
Y62999D01*
X185665Y62333D01*
X187664D01*
Y64999D01*
X189664Y65665D02*
Y64999D01*
X188997D01*
X190330D01*
X189664D01*
Y62999D01*
X190330Y62333D01*
X192330Y61000D02*
Y64999D01*
X194329D01*
X194995Y64332D01*
Y62999D01*
X194329Y62333D01*
X192330D01*
X196328Y64999D02*
Y62999D01*
X196995Y62333D01*
X198994D01*
Y64999D01*
X200994Y65665D02*
Y64999D01*
X200327D01*
X201660D01*
X200994D01*
Y62999D01*
X201660Y62333D01*
X183666Y72499D02*
X181000D01*
Y70499D01*
X182333Y71166D01*
X182999D01*
X183666Y70499D01*
Y69166D01*
X182999Y68500D01*
X181667D01*
X181000Y69166D01*
X187664Y72499D02*
X184999D01*
Y70499D01*
X186332Y71166D01*
X186998D01*
X187664Y70499D01*
Y69166D01*
X186998Y68500D01*
X185665D01*
X184999Y69166D01*
X191663Y72499D02*
X188997D01*
Y70499D01*
X190330Y71166D01*
X190997D01*
X191663Y70499D01*
Y69166D01*
X190997Y68500D01*
X189664D01*
X188997Y69166D01*
X16166Y122499D02*
X13500D01*
Y120499D01*
X14833Y121166D01*
X15499D01*
X16166Y120499D01*
Y119167D01*
X15499Y118500D01*
X14166D01*
X13500Y119167D01*
X17499Y122499D02*
Y119833D01*
X18832Y118500D01*
X20165Y119833D01*
Y122499D01*
X308500Y31000D02*
X310166D01*
X309333D01*
Y35998D01*
X308500Y35165D01*
X312665D02*
X313498Y35998D01*
X315164D01*
X315998Y35165D01*
Y31833D01*
X315164Y31000D01*
X313498D01*
X312665Y31833D01*
Y35165D01*
X317664Y31000D02*
Y35998D01*
Y32666D02*
X320163Y34332D01*
X317664Y32666D02*
X320163Y31000D01*
X281000D02*
X282666D01*
X281833D01*
Y35998D01*
X281000Y35165D01*
X285165Y31000D02*
Y35998D01*
Y32666D02*
X287665Y34332D01*
X285165Y32666D02*
X287665Y31000D01*
X246000Y35165D02*
X246833Y35998D01*
X248499D01*
X249332Y35165D01*
Y34332D01*
X248499Y33499D01*
X247666D01*
X248499D01*
X249332Y32666D01*
Y31833D01*
X248499Y31000D01*
X246833D01*
X246000Y31833D01*
X250998Y35165D02*
X251831Y35998D01*
X253498D01*
X254331Y35165D01*
Y31833D01*
X253498Y31000D01*
X251831D01*
X250998Y31833D01*
Y35165D01*
X255997D02*
X256830Y35998D01*
X258496D01*
X259329Y35165D01*
Y31833D01*
X258496Y31000D01*
X256830D01*
X255997Y31833D01*
Y35165D01*
X221832Y35998D02*
X218500D01*
Y33499D01*
X220166Y34332D01*
X220999D01*
X221832Y33499D01*
Y31833D01*
X220999Y31000D01*
X219333D01*
X218500Y31833D01*
X223498Y35165D02*
X224331Y35998D01*
X225998D01*
X226831Y35165D01*
Y31833D01*
X225998Y31000D01*
X224331D01*
X223498Y31833D01*
Y35165D01*
X193999Y174498D02*
X192000D01*
X191000Y173498D01*
Y169500D01*
X192000Y168500D01*
X193999D01*
X194999Y169500D01*
Y173498D01*
X193999Y174498D01*
X196998Y172499D02*
Y169500D01*
X197998Y168500D01*
X198997Y169500D01*
X199997Y168500D01*
X200997Y169500D01*
Y172499D01*
X205995Y168500D02*
X203996D01*
X202996Y169500D01*
Y171499D01*
X203996Y172499D01*
X205995D01*
X206995Y171499D01*
Y170499D01*
X202996D01*
X208994Y168500D02*
Y172499D01*
X211993D01*
X212993Y171499D01*
Y168500D01*
X220990D02*
Y172499D01*
X222990Y174498D01*
X224989Y172499D01*
Y168500D01*
Y171499D01*
X220990D01*
X226988Y168500D02*
X228988D01*
X227988D01*
Y174498D01*
X226988D01*
X231987Y168500D02*
X233986D01*
X232986D01*
Y174498D01*
X231987D01*
X236985Y168500D02*
X238984D01*
X237985D01*
Y172499D01*
X236985D01*
X241984Y168500D02*
X244983D01*
X245982Y169500D01*
X244983Y170499D01*
X242983D01*
X241984Y171499D01*
X242983Y172499D01*
X245982D01*
X248981Y168500D02*
X250981D01*
X251980Y169500D01*
Y171499D01*
X250981Y172499D01*
X248981D01*
X247982Y171499D01*
Y169500D01*
X248981Y168500D01*
X253980D02*
Y172499D01*
X256979D01*
X257978Y171499D01*
Y168500D01*
X194999Y186998D02*
X191000D01*
Y181000D01*
X194999D01*
X191000Y183999D02*
X192999D01*
X200997Y185998D02*
X199997Y186998D01*
X197998D01*
X196998Y185998D01*
Y182000D01*
X197998Y181000D01*
X199997D01*
X200997Y182000D01*
X206995Y186998D02*
X202996D01*
Y181000D01*
X206995D01*
X202996Y183999D02*
X204995D01*
X208994Y181000D02*
Y186998D01*
X212993Y181000D01*
Y186998D01*
X220990Y185998D02*
X221990Y186998D01*
X223989D01*
X224989Y185998D01*
Y184999D01*
X223989Y183999D01*
X222990D01*
X223989D01*
X224989Y182999D01*
Y182000D01*
X223989Y181000D01*
X221990D01*
X220990Y182000D01*
X226988Y186998D02*
X230987D01*
Y185998D01*
X226988Y182000D01*
Y181000D01*
X232986Y185998D02*
X233986Y186998D01*
X235985D01*
X236985Y185998D01*
Y184999D01*
X235985Y183999D01*
X234986D01*
X235985D01*
X236985Y182999D01*
Y182000D01*
X235985Y181000D01*
X233986D01*
X232986Y182000D01*
X238984Y185998D02*
X239984Y186998D01*
X241984D01*
X242983Y185998D01*
Y182000D01*
X241984Y181000D01*
X239984D01*
X238984Y182000D01*
Y185998D01*
X250981Y181000D02*
Y186998D01*
X253980D01*
X254979Y185998D01*
Y183999D01*
X253980Y182999D01*
X250981D01*
X256979Y184999D02*
Y181000D01*
Y182999D01*
X257978Y183999D01*
X258978Y184999D01*
X259978D01*
X263976D02*
X265976D01*
X266975Y183999D01*
Y181000D01*
X263976D01*
X262977Y182000D01*
X263976Y182999D01*
X266975D01*
X272973Y184999D02*
X269974D01*
X268975Y183999D01*
Y182000D01*
X269974Y181000D01*
X272973D01*
X275973Y185998D02*
Y184999D01*
X274973D01*
X276972D01*
X275973D01*
Y182000D01*
X276972Y181000D01*
X279971D02*
X281971D01*
X280971D01*
Y184999D01*
X279971D01*
X288968D02*
X285969D01*
X284970Y183999D01*
Y182000D01*
X285969Y181000D01*
X288968D01*
X293967D02*
X291967D01*
X290968Y182000D01*
Y183999D01*
X291967Y184999D01*
X293967D01*
X294966Y183999D01*
Y182999D01*
X290968D01*
X302964Y186998D02*
Y181000D01*
X305963D01*
X306962Y182000D01*
Y182999D01*
X305963Y183999D01*
X302964D01*
X305963D01*
X306962Y184999D01*
Y185998D01*
X305963Y186998D01*
X302964D01*
X309962Y181000D02*
X311961D01*
X312961Y182000D01*
Y183999D01*
X311961Y184999D01*
X309962D01*
X308962Y183999D01*
Y182000D01*
X309962Y181000D01*
X315960Y184999D02*
X317959D01*
X318959Y183999D01*
Y181000D01*
X315960D01*
X314960Y182000D01*
X315960Y182999D01*
X318959D01*
X320958Y184999D02*
Y181000D01*
Y182999D01*
X321958Y183999D01*
X322957Y184999D01*
X323957D01*
X330955Y186998D02*
Y181000D01*
X327956D01*
X326956Y182000D01*
Y183999D01*
X327956Y184999D01*
X330955D01*
X86001Y90999D02*
Y86001D01*
X87001Y85001D01*
X89000D01*
X90000Y86001D01*
Y90999D01*
X91999Y85001D02*
X93999D01*
X92999D01*
Y90999D01*
X91999Y89999D01*
X263003Y18499D02*
X267001D01*
X265002D01*
Y12501D01*
X269001D02*
Y18499D01*
X272000D01*
X272999Y17499D01*
Y15500D01*
X272000Y14500D01*
X269001D01*
X274999Y17499D02*
X275998Y18499D01*
X277998D01*
X278997Y17499D01*
Y16500D01*
X277998Y15500D01*
X276998D01*
X277998D01*
X278997Y14500D01*
Y13501D01*
X277998Y12501D01*
X275998D01*
X274999Y13501D01*
X161000Y85798D02*
X164999D01*
X162999D01*
Y79800D01*
X166998D02*
Y85798D01*
X169997D01*
X170997Y84798D01*
Y82799D01*
X169997Y81799D01*
X166998D01*
X176995Y79800D02*
X172996D01*
X176995Y83799D01*
Y84798D01*
X175995Y85798D01*
X173996D01*
X172996Y84798D01*
X14200Y147798D02*
X18199D01*
X16199D01*
Y141800D01*
X20198D02*
Y147798D01*
X23197D01*
X24197Y146798D01*
Y144799D01*
X23197Y143799D01*
X20198D01*
X26196Y141800D02*
X28196D01*
X27196D01*
Y147798D01*
X26196Y146798D01*
X161001Y114999D02*
X160002Y115999D01*
X158002D01*
X157003Y114999D01*
Y114000D01*
X158002Y113000D01*
X160002D01*
X161001Y112000D01*
Y111001D01*
X160002Y110001D01*
X158002D01*
X157003Y111001D01*
X163001Y115999D02*
Y110001D01*
X165000Y112000D01*
X166999Y110001D01*
Y115999D01*
X172997Y110001D02*
X168999D01*
X172997Y114000D01*
Y114999D01*
X171998Y115999D01*
X169998D01*
X168999Y114999D01*
X101001Y140999D02*
X100001Y141999D01*
X98002D01*
X97002Y140999D01*
Y140000D01*
X98002Y139000D01*
X100001D01*
X101001Y138000D01*
Y137001D01*
X100001Y136001D01*
X98002D01*
X97002Y137001D01*
X103000Y141999D02*
Y136001D01*
X105000Y138000D01*
X106999Y136001D01*
Y141999D01*
X108998Y136001D02*
X110998D01*
X109998D01*
Y141999D01*
X108998Y140999D01*
X146200Y186500D02*
Y192498D01*
X149199D01*
X150199Y191498D01*
Y189499D01*
X149199Y188499D01*
X146200D01*
X148199D02*
X150199Y186500D01*
X156197Y191498D02*
X155197Y192498D01*
X153198D01*
X152198Y191498D01*
Y190499D01*
X153198Y189499D01*
X155197D01*
X156197Y188499D01*
Y187500D01*
X155197Y186500D01*
X153198D01*
X152198Y187500D01*
X24002Y67001D02*
Y72999D01*
X27001D01*
X28000Y71999D01*
Y70000D01*
X27001Y69000D01*
X24002D01*
X26001D02*
X28000Y67001D01*
X30000Y72999D02*
Y67001D01*
X32999D01*
X33998Y68001D01*
Y69000D01*
X32999Y70000D01*
X30000D01*
X32999D01*
X33998Y71000D01*
Y71999D01*
X32999Y72999D01*
X30000D01*
X24002Y87001D02*
Y92999D01*
X27001D01*
X28000Y91999D01*
Y90000D01*
X27001Y89000D01*
X24002D01*
X26001D02*
X28000Y87001D01*
X30000D02*
Y91000D01*
X31999Y92999D01*
X33998Y91000D01*
Y87001D01*
Y90000D01*
X30000D01*
X308700Y64000D02*
Y69998D01*
X311699D01*
X312699Y68998D01*
Y66999D01*
X311699Y65999D01*
X308700D01*
X310699D02*
X312699Y64000D01*
X317697D02*
Y69998D01*
X314698Y66999D01*
X318697D01*
X278700Y64000D02*
Y69998D01*
X281699D01*
X282699Y68998D01*
Y66999D01*
X281699Y65999D01*
X278700D01*
X280699D02*
X282699Y64000D01*
X284698Y68998D02*
X285698Y69998D01*
X287697D01*
X288697Y68998D01*
Y67999D01*
X287697Y66999D01*
X286697D01*
X287697D01*
X288697Y65999D01*
Y65000D01*
X287697Y64000D01*
X285698D01*
X284698Y65000D01*
X248700Y64000D02*
Y69998D01*
X251699D01*
X252699Y68998D01*
Y66999D01*
X251699Y65999D01*
X248700D01*
X250699D02*
X252699Y64000D01*
X258697D02*
X254698D01*
X258697Y67999D01*
Y68998D01*
X257697Y69998D01*
X255698D01*
X254698Y68998D01*
X218700Y64000D02*
Y69998D01*
X221699D01*
X222699Y68998D01*
Y66999D01*
X221699Y65999D01*
X218700D01*
X220699D02*
X222699Y64000D01*
X224698D02*
X226697D01*
X225698D01*
Y69998D01*
X224698Y68998D01*
X66001Y186500D02*
Y192498D01*
X69000D01*
X70000Y191498D01*
Y189499D01*
X69000Y188499D01*
X66001D01*
X71999Y186500D02*
X73999D01*
X72999D01*
Y192498D01*
X71999Y191498D01*
X115002Y192499D02*
Y186501D01*
X118001D01*
X119000Y187501D01*
Y191499D01*
X118001Y192499D01*
X115002D01*
X124998Y191499D02*
X123999Y192499D01*
X121999D01*
X121000Y191499D01*
Y190500D01*
X121999Y189500D01*
X123999D01*
X124998Y188500D01*
Y187501D01*
X123999Y186501D01*
X121999D01*
X121000Y187501D01*
X307502Y99999D02*
Y94001D01*
X310501D01*
X311500Y95001D01*
Y98999D01*
X310501Y99999D01*
X307502D01*
X316499Y94001D02*
Y99999D01*
X313500Y97000D01*
X317498D01*
X277502Y99999D02*
Y94001D01*
X280501D01*
X281500Y95001D01*
Y98999D01*
X280501Y99999D01*
X277502D01*
X283500Y98999D02*
X284499Y99999D01*
X286499D01*
X287498Y98999D01*
Y98000D01*
X286499Y97000D01*
X285499D01*
X286499D01*
X287498Y96000D01*
Y95001D01*
X286499Y94001D01*
X284499D01*
X283500Y95001D01*
X247502Y99999D02*
Y94001D01*
X250501D01*
X251500Y95001D01*
Y98999D01*
X250501Y99999D01*
X247502D01*
X257498Y94001D02*
X253500D01*
X257498Y98000D01*
Y98999D01*
X256499Y99999D01*
X254499D01*
X253500Y98999D01*
X218501Y99999D02*
Y94001D01*
X221500D01*
X222500Y95001D01*
Y98999D01*
X221500Y99999D01*
X218501D01*
X224499Y94001D02*
X226499D01*
X225499D01*
Y99999D01*
X224499Y98999D01*
X90999Y191498D02*
X89999Y192498D01*
X88000D01*
X87000Y191498D01*
Y187500D01*
X88000Y186500D01*
X89999D01*
X90999Y187500D01*
X96997Y191498D02*
X95997Y192498D01*
X93998D01*
X92998Y191498D01*
Y190499D01*
X93998Y189499D01*
X95997D01*
X96997Y188499D01*
Y187500D01*
X95997Y186500D01*
X93998D01*
X92998Y187500D01*
X28000Y51999D02*
X27001Y52999D01*
X25001D01*
X24002Y51999D01*
Y48001D01*
X25001Y47001D01*
X27001D01*
X28000Y48001D01*
X33998Y47001D02*
X30000D01*
X33998Y51000D01*
Y51999D01*
X32999Y52999D01*
X30999D01*
X30000Y51999D01*
X121999Y89398D02*
X120999Y90398D01*
X119000D01*
X118000Y89398D01*
Y85400D01*
X119000Y84400D01*
X120999D01*
X121999Y85400D01*
X123998Y84400D02*
X125997D01*
X124998D01*
Y90398D01*
X123998Y89398D01*
D14*
X14000Y127000D02*
X24500D01*
X14000D02*
Y138000D01*
X54500Y127000D02*
X56000D01*
Y138000D01*
X14000D02*
X56000D01*
X216500Y10000D02*
X227000D01*
X216500D02*
Y21000D01*
X257000Y10000D02*
X258500D01*
Y21000D01*
X216500D02*
X258500D01*
X175500Y34000D02*
Y76000D01*
X164500Y34000D02*
X175500D01*
X164500D02*
Y35500D01*
Y76000D02*
X175500D01*
X164500Y65500D02*
Y76000D01*
D15*
X307382Y76800D02*
Y87800D01*
X317618Y76900D02*
Y87900D01*
X277382Y76800D02*
Y87800D01*
X287618Y76900D02*
Y87900D01*
X247382Y76800D02*
Y87800D01*
X257618Y76900D02*
Y87900D01*
X217382Y76800D02*
Y87800D01*
X227618Y76900D02*
Y87900D01*
X114882Y169300D02*
Y180300D01*
X125118Y169400D02*
Y180400D01*
X123600Y74000D02*
X127400D01*
X123600Y81000D02*
X127400D01*
X43100Y46500D02*
X46900D01*
X43100Y53500D02*
X46900D01*
X43100Y65512D02*
X46900D01*
X43100Y74488D02*
X46900D01*
X43100Y85512D02*
X46900D01*
X43100Y94488D02*
X46900D01*
X316988Y50600D02*
Y54400D01*
X308012Y50600D02*
Y54400D01*
X286988Y50600D02*
Y54400D01*
X278012Y50600D02*
Y54400D01*
X256988Y50600D02*
Y54400D01*
X248012Y50600D02*
Y54400D01*
X226988Y50600D02*
Y54400D01*
X218012Y50600D02*
Y54400D01*
X93500Y173100D02*
Y176900D01*
X86500Y173100D02*
Y176900D01*
X145512Y173100D02*
Y176900D01*
X154488Y173100D02*
Y176900D01*
D16*
X99000Y103228D02*
Y126772D01*
X108965D01*
Y103228D02*
Y126772D01*
X99000Y103228D02*
X108965D01*
X153228Y95000D02*
X176772D01*
X153228D02*
Y104965D01*
X176772D01*
Y95000D02*
Y104965D01*
D17*
X83700Y59100D02*
X96298D01*
X83702Y80900D02*
X96300D01*
D18*
X57722Y158283D02*
X62468D01*
Y167300D01*
X5776Y158283D02*
Y193717D01*
X62468D01*
Y185500D02*
Y193717D01*
X5776Y158283D02*
X41012D01*
M02*
