G04*
G04 #@! TF.GenerationSoftware,Altium Limited,Altium Designer,25.2.1 (25)*
G04*
G04 Layer_Color=16711935*
%FSLAX25Y25*%
%MOIN*%
G70*
G04*
G04 #@! TF.SameCoordinates,7AEDDAFA-F4C1-4ABB-908B-76DA138DF952*
G04*
G04*
G04 #@! TF.FilePolarity,Negative*
G04*
G01*
G75*
%ADD22C,0.00000*%
%ADD26O,0.08674X0.15761*%
%ADD27O,0.13792X0.07887*%
%ADD28C,0.07800*%
%ADD29C,0.07178*%
%ADD30C,0.03300*%
D22*
X107390Y110000D02*
G03*
X107390Y110000I-3390J0D01*
G01*
Y120000D02*
G03*
X107390Y120000I-3390J0D01*
G01*
X173390Y100000D02*
G03*
X173390Y100000I-3390J0D01*
G01*
X163390D02*
G03*
X163390Y100000I-3390J0D01*
G01*
D26*
X59622Y176000D02*
D03*
X36000D02*
D03*
D27*
X49779Y157693D02*
D03*
D28*
X40000Y132500D02*
D03*
X50000D02*
D03*
X20000D02*
D03*
X30000D02*
D03*
X242500Y15500D02*
D03*
X252500D02*
D03*
X222500D02*
D03*
X232500D02*
D03*
X170000Y60000D02*
D03*
Y70000D02*
D03*
Y40000D02*
D03*
Y50000D02*
D03*
D29*
X104000Y110000D02*
D03*
Y120000D02*
D03*
X170000Y100000D02*
D03*
X160000D02*
D03*
D30*
X50900Y60600D02*
D03*
X121000Y67500D02*
D03*
X60000Y72500D02*
D03*
X111500Y67500D02*
D03*
X138000Y77500D02*
D03*
X90000Y162000D02*
D03*
X39000Y41000D02*
D03*
X150000Y162000D02*
D03*
X67500Y77500D02*
D03*
X312500Y40500D02*
D03*
X282500D02*
D03*
X252500D02*
D03*
X222500D02*
D03*
M02*
