G04*
G04 #@! TF.GenerationSoftware,Altium Limited,Altium Designer,25.2.1 (25)*
G04*
G04 Layer_Physical_Order=2*
G04 Layer_Color=16711680*
%FSLAX25Y25*%
%MOIN*%
G70*
G04*
G04 #@! TF.SameCoordinates,33EAF51A-26EF-4A86-81AC-10F0C2BF7AB2*
G04*
G04*
G04 #@! TF.FilePolarity,Positive*
G04*
G01*
G75*
%ADD16C,0.00600*%
%ADD31O,0.07874X0.14961*%
%ADD32O,0.12992X0.07087*%
%ADD33C,0.07000*%
%ADD34C,0.06378*%
%ADD35C,0.02500*%
G36*
X347961Y2039D02*
X2039D01*
Y197961D01*
X347961D01*
Y2039D01*
D02*
G37*
%LPC*%
G36*
X36500Y184457D02*
Y176500D01*
X40980D01*
Y179543D01*
X40810Y180832D01*
X40312Y182033D01*
X39521Y183064D01*
X38490Y183856D01*
X37289Y184353D01*
X36500Y184457D01*
D02*
G37*
G36*
X35500D02*
X34711Y184353D01*
X33510Y183856D01*
X32479Y183064D01*
X31688Y182033D01*
X31190Y180832D01*
X31020Y179543D01*
Y176500D01*
X35500D01*
Y184457D01*
D02*
G37*
G36*
X40980Y175500D02*
X36500D01*
Y167543D01*
X37289Y167647D01*
X38490Y168144D01*
X39521Y168936D01*
X40312Y169967D01*
X40810Y171168D01*
X40980Y172457D01*
Y175500D01*
D02*
G37*
G36*
X35500D02*
X31020D01*
Y172457D01*
X31190Y171168D01*
X31688Y169967D01*
X32479Y168936D01*
X33510Y168144D01*
X34711Y167647D01*
X35500Y167543D01*
Y175500D01*
D02*
G37*
G36*
X59622Y184523D02*
X58333Y184353D01*
X57132Y183856D01*
X56101Y183064D01*
X55310Y182033D01*
X54812Y180832D01*
X54642Y179543D01*
Y172457D01*
X54812Y171168D01*
X55310Y169967D01*
X56101Y168936D01*
X57132Y168144D01*
X58333Y167647D01*
X59622Y167477D01*
X60911Y167647D01*
X62112Y168144D01*
X63143Y168936D01*
X63934Y169967D01*
X64432Y171168D01*
X64602Y172457D01*
Y179543D01*
X64432Y180832D01*
X63934Y182033D01*
X63143Y183064D01*
X62112Y183856D01*
X60911Y184353D01*
X59622Y184523D01*
D02*
G37*
G36*
X52732Y162275D02*
X50279D01*
Y158193D01*
X57249D01*
X57159Y158879D01*
X56701Y159984D01*
X55973Y160933D01*
X55023Y161662D01*
X53918Y162119D01*
X52732Y162275D01*
D02*
G37*
G36*
X49279D02*
X46827D01*
X45641Y162119D01*
X44535Y161662D01*
X43587Y160933D01*
X42858Y159984D01*
X42400Y158879D01*
X42310Y158193D01*
X49279D01*
Y162275D01*
D02*
G37*
G36*
X57249Y157193D02*
X50279D01*
Y153110D01*
X52732D01*
X53918Y153267D01*
X55023Y153724D01*
X55973Y154453D01*
X56701Y155402D01*
X57159Y156507D01*
X57249Y157193D01*
D02*
G37*
G36*
X49279D02*
X42310D01*
X42400Y156507D01*
X42858Y155402D01*
X43587Y154453D01*
X44535Y153724D01*
X45641Y153267D01*
X46827Y153110D01*
X49279D01*
Y157193D01*
D02*
G37*
G36*
X50592Y137000D02*
X50500D01*
Y133000D01*
X54500D01*
Y133092D01*
X54193Y134237D01*
X53601Y135263D01*
X52763Y136101D01*
X51737Y136693D01*
X50592Y137000D01*
D02*
G37*
G36*
X49500D02*
X49408D01*
X48263Y136693D01*
X47237Y136101D01*
X46399Y135263D01*
X45807Y134237D01*
X45500Y133092D01*
Y133000D01*
X49500D01*
Y137000D01*
D02*
G37*
G36*
X40592D02*
X40500D01*
Y133000D01*
X44500D01*
Y133092D01*
X44193Y134237D01*
X43601Y135263D01*
X42763Y136101D01*
X41737Y136693D01*
X40592Y137000D01*
D02*
G37*
G36*
X39500D02*
X39408D01*
X38263Y136693D01*
X37237Y136101D01*
X36399Y135263D01*
X35807Y134237D01*
X35500Y133092D01*
Y133000D01*
X39500D01*
Y137000D01*
D02*
G37*
G36*
X30592D02*
X30500D01*
Y133000D01*
X34500D01*
Y133092D01*
X34193Y134237D01*
X33601Y135263D01*
X32763Y136101D01*
X31737Y136693D01*
X30592Y137000D01*
D02*
G37*
G36*
X29500D02*
X29408D01*
X28263Y136693D01*
X27237Y136101D01*
X26399Y135263D01*
X25807Y134237D01*
X25500Y133092D01*
Y133000D01*
X29500D01*
Y137000D01*
D02*
G37*
G36*
X54500Y132000D02*
X50500D01*
Y128000D01*
X50592D01*
X51737Y128307D01*
X52763Y128899D01*
X53601Y129737D01*
X54193Y130763D01*
X54500Y131908D01*
Y132000D01*
D02*
G37*
G36*
X49500D02*
X45500D01*
Y131908D01*
X45807Y130763D01*
X46399Y129737D01*
X47237Y128899D01*
X48263Y128307D01*
X49408Y128000D01*
X49500D01*
Y132000D01*
D02*
G37*
G36*
X44500D02*
X40500D01*
Y128000D01*
X40592D01*
X41737Y128307D01*
X42763Y128899D01*
X43601Y129737D01*
X44193Y130763D01*
X44500Y131908D01*
Y132000D01*
D02*
G37*
G36*
X39500D02*
X35500D01*
Y131908D01*
X35807Y130763D01*
X36399Y129737D01*
X37237Y128899D01*
X38263Y128307D01*
X39408Y128000D01*
X39500D01*
Y132000D01*
D02*
G37*
G36*
X34500D02*
X30500D01*
Y128000D01*
X30592D01*
X31737Y128307D01*
X32763Y128899D01*
X33601Y129737D01*
X34193Y130763D01*
X34500Y131908D01*
Y132000D01*
D02*
G37*
G36*
X29500D02*
X25500D01*
Y131908D01*
X25807Y130763D01*
X26399Y129737D01*
X27237Y128899D01*
X28263Y128307D01*
X29408Y128000D01*
X29500D01*
Y132000D01*
D02*
G37*
G36*
X20592Y137000D02*
X19408D01*
X18263Y136693D01*
X17237Y136101D01*
X16399Y135263D01*
X15807Y134237D01*
X15500Y133092D01*
Y131908D01*
X15807Y130763D01*
X16399Y129737D01*
X17237Y128899D01*
X18263Y128307D01*
X19408Y128000D01*
X20592D01*
X21737Y128307D01*
X22763Y128899D01*
X23601Y129737D01*
X24193Y130763D01*
X24500Y131908D01*
Y133092D01*
X24193Y134237D01*
X23601Y135263D01*
X22763Y136101D01*
X21737Y136693D01*
X20592Y137000D01*
D02*
G37*
G36*
X104551Y124189D02*
X103448D01*
X102383Y123904D01*
X101428Y123352D01*
X100648Y122572D01*
X100096Y121617D01*
X99811Y120552D01*
Y119448D01*
X100096Y118383D01*
X100648Y117428D01*
X101428Y116648D01*
X102383Y116096D01*
X103448Y115811D01*
X104551D01*
X105617Y116096D01*
X106572Y116648D01*
X107352Y117428D01*
X107904Y118383D01*
X108189Y119448D01*
Y120552D01*
X107904Y121617D01*
X107352Y122572D01*
X106572Y123352D01*
X105617Y123904D01*
X104551Y124189D01*
D02*
G37*
G36*
Y114189D02*
X103448D01*
X102383Y113903D01*
X101428Y113352D01*
X100648Y112572D01*
X100096Y111617D01*
X99811Y110552D01*
Y109449D01*
X100096Y108383D01*
X100648Y107428D01*
X101428Y106648D01*
X102383Y106096D01*
X103448Y105811D01*
X104551D01*
X105617Y106096D01*
X106572Y106648D01*
X107352Y107428D01*
X107904Y108383D01*
X108189Y109449D01*
Y110552D01*
X107904Y111617D01*
X107352Y112572D01*
X106572Y113352D01*
X105617Y113903D01*
X104551Y114189D01*
D02*
G37*
G36*
X170552Y104189D02*
X169448D01*
X168383Y103903D01*
X167428Y103352D01*
X166648Y102572D01*
X166096Y101617D01*
X165811Y100551D01*
Y99449D01*
X166096Y98383D01*
X166648Y97428D01*
X167428Y96648D01*
X168383Y96096D01*
X169448Y95811D01*
X170552D01*
X171617Y96096D01*
X172572Y96648D01*
X173352Y97428D01*
X173904Y98383D01*
X174189Y99449D01*
Y100551D01*
X173904Y101617D01*
X173352Y102572D01*
X172572Y103352D01*
X171617Y103903D01*
X170552Y104189D01*
D02*
G37*
G36*
X160552D02*
X159449D01*
X158383Y103903D01*
X157428Y103352D01*
X156648Y102572D01*
X156096Y101617D01*
X155811Y100551D01*
Y99449D01*
X156096Y98383D01*
X156648Y97428D01*
X157428Y96648D01*
X158383Y96096D01*
X159449Y95811D01*
X160552D01*
X161617Y96096D01*
X162572Y96648D01*
X163352Y97428D01*
X163903Y98383D01*
X164189Y99449D01*
Y100551D01*
X163903Y101617D01*
X163352Y102572D01*
X162572Y103352D01*
X161617Y103903D01*
X160552Y104189D01*
D02*
G37*
G36*
X170592Y74500D02*
X169408D01*
X168263Y74193D01*
X167237Y73601D01*
X166399Y72763D01*
X165807Y71737D01*
X165500Y70592D01*
Y69408D01*
X165807Y68263D01*
X166399Y67237D01*
X167237Y66399D01*
X168263Y65807D01*
X169408Y65500D01*
X170592D01*
X171737Y65807D01*
X172763Y66399D01*
X173601Y67237D01*
X174193Y68263D01*
X174500Y69408D01*
Y70592D01*
X174193Y71737D01*
X173601Y72763D01*
X172763Y73601D01*
X171737Y74193D01*
X170592Y74500D01*
D02*
G37*
G36*
Y64500D02*
X170500D01*
Y60500D01*
X174500D01*
Y60592D01*
X174193Y61737D01*
X173601Y62763D01*
X172763Y63601D01*
X171737Y64193D01*
X170592Y64500D01*
D02*
G37*
G36*
X169500D02*
X169408D01*
X168263Y64193D01*
X167237Y63601D01*
X166399Y62763D01*
X165807Y61737D01*
X165500Y60592D01*
Y60500D01*
X169500D01*
Y64500D01*
D02*
G37*
G36*
X70448Y60250D02*
X69552D01*
X68726Y59908D01*
X68143Y59325D01*
X60856D01*
X60274Y59908D01*
X59448Y60250D01*
X58552D01*
X57726Y59908D01*
X57092Y59275D01*
X56750Y58448D01*
Y57552D01*
X57092Y56726D01*
X57726Y56093D01*
X58552Y55750D01*
X59448D01*
X60274Y56093D01*
X60856Y56674D01*
X68143D01*
X68726Y56093D01*
X69552Y55750D01*
X70448D01*
X71275Y56093D01*
X71908Y56726D01*
X72250Y57552D01*
Y58448D01*
X71908Y59275D01*
X71275Y59908D01*
X70448Y60250D01*
D02*
G37*
G36*
X174500Y59500D02*
X170500D01*
Y55500D01*
X170592D01*
X171737Y55807D01*
X172763Y56399D01*
X173601Y57237D01*
X174193Y58263D01*
X174500Y59408D01*
Y59500D01*
D02*
G37*
G36*
X169500D02*
X165500D01*
Y59408D01*
X165807Y58263D01*
X166399Y57237D01*
X167237Y56399D01*
X168263Y55807D01*
X169408Y55500D01*
X169500D01*
Y59500D01*
D02*
G37*
G36*
X170592Y54500D02*
X170500D01*
Y50500D01*
X174500D01*
Y50592D01*
X174193Y51737D01*
X173601Y52763D01*
X172763Y53601D01*
X171737Y54193D01*
X170592Y54500D01*
D02*
G37*
G36*
X169500D02*
X169408D01*
X168263Y54193D01*
X167237Y53601D01*
X166399Y52763D01*
X165807Y51737D01*
X165500Y50592D01*
Y50500D01*
X169500D01*
Y54500D01*
D02*
G37*
G36*
X174500Y49500D02*
X170500D01*
Y45500D01*
X170592D01*
X171737Y45807D01*
X172763Y46399D01*
X173601Y47237D01*
X174193Y48263D01*
X174500Y49408D01*
Y49500D01*
D02*
G37*
G36*
X169500D02*
X165500D01*
Y49408D01*
X165807Y48263D01*
X166399Y47237D01*
X167237Y46399D01*
X168263Y45807D01*
X169408Y45500D01*
X169500D01*
Y49500D01*
D02*
G37*
G36*
X112448Y61750D02*
X111552D01*
X110725Y61408D01*
X110092Y60774D01*
X109750Y59948D01*
Y59052D01*
X110092Y58226D01*
X110675Y57644D01*
Y47357D01*
X110092Y46775D01*
X109750Y45948D01*
Y45052D01*
X110092Y44225D01*
X110725Y43593D01*
X111552Y43250D01*
X112448D01*
X113275Y43593D01*
X113908Y44225D01*
X114250Y45052D01*
Y45948D01*
X113908Y46775D01*
X113326Y47357D01*
Y57644D01*
X113908Y58226D01*
X114250Y59052D01*
Y59948D01*
X113908Y60774D01*
X113275Y61408D01*
X112448Y61750D01*
D02*
G37*
G36*
X170592Y44500D02*
X170500D01*
Y40500D01*
X174500D01*
Y40592D01*
X174193Y41737D01*
X173601Y42763D01*
X172763Y43601D01*
X171737Y44193D01*
X170592Y44500D01*
D02*
G37*
G36*
X169500D02*
X169408D01*
X168263Y44193D01*
X167237Y43601D01*
X166399Y42763D01*
X165807Y41737D01*
X165500Y40592D01*
Y40500D01*
X169500D01*
Y44500D01*
D02*
G37*
G36*
X174500Y39500D02*
X170500D01*
Y35500D01*
X170592D01*
X171737Y35807D01*
X172763Y36399D01*
X173601Y37237D01*
X174193Y38263D01*
X174500Y39408D01*
Y39500D01*
D02*
G37*
G36*
X169500D02*
X165500D01*
Y39408D01*
X165807Y38263D01*
X166399Y37237D01*
X167237Y36399D01*
X168263Y35807D01*
X169408Y35500D01*
X169500D01*
Y39500D01*
D02*
G37*
G36*
X253092Y20000D02*
X253000D01*
Y16000D01*
X257000D01*
Y16092D01*
X256693Y17237D01*
X256101Y18263D01*
X255263Y19101D01*
X254237Y19693D01*
X253092Y20000D01*
D02*
G37*
G36*
X252000D02*
X251908D01*
X250763Y19693D01*
X249737Y19101D01*
X248899Y18263D01*
X248307Y17237D01*
X248000Y16092D01*
Y16000D01*
X252000D01*
Y20000D01*
D02*
G37*
G36*
X243092D02*
X243000D01*
Y16000D01*
X247000D01*
Y16092D01*
X246693Y17237D01*
X246101Y18263D01*
X245263Y19101D01*
X244237Y19693D01*
X243092Y20000D01*
D02*
G37*
G36*
X242000D02*
X241908D01*
X240763Y19693D01*
X239737Y19101D01*
X238899Y18263D01*
X238307Y17237D01*
X238000Y16092D01*
Y16000D01*
X242000D01*
Y20000D01*
D02*
G37*
G36*
X233092D02*
X233000D01*
Y16000D01*
X237000D01*
Y16092D01*
X236693Y17237D01*
X236101Y18263D01*
X235263Y19101D01*
X234237Y19693D01*
X233092Y20000D01*
D02*
G37*
G36*
X232000D02*
X231908D01*
X230763Y19693D01*
X229737Y19101D01*
X228899Y18263D01*
X228307Y17237D01*
X228000Y16092D01*
Y16000D01*
X232000D01*
Y20000D01*
D02*
G37*
G36*
X257000Y15000D02*
X253000D01*
Y11000D01*
X253092D01*
X254237Y11307D01*
X255263Y11899D01*
X256101Y12737D01*
X256693Y13763D01*
X257000Y14908D01*
Y15000D01*
D02*
G37*
G36*
X252000D02*
X248000D01*
Y14908D01*
X248307Y13763D01*
X248899Y12737D01*
X249737Y11899D01*
X250763Y11307D01*
X251908Y11000D01*
X252000D01*
Y15000D01*
D02*
G37*
G36*
X247000D02*
X243000D01*
Y11000D01*
X243092D01*
X244237Y11307D01*
X245263Y11899D01*
X246101Y12737D01*
X246693Y13763D01*
X247000Y14908D01*
Y15000D01*
D02*
G37*
G36*
X242000D02*
X238000D01*
Y14908D01*
X238307Y13763D01*
X238899Y12737D01*
X239737Y11899D01*
X240763Y11307D01*
X241908Y11000D01*
X242000D01*
Y15000D01*
D02*
G37*
G36*
X237000D02*
X233000D01*
Y11000D01*
X233092D01*
X234237Y11307D01*
X235263Y11899D01*
X236101Y12737D01*
X236693Y13763D01*
X237000Y14908D01*
Y15000D01*
D02*
G37*
G36*
X232000D02*
X228000D01*
Y14908D01*
X228307Y13763D01*
X228899Y12737D01*
X229737Y11899D01*
X230763Y11307D01*
X231908Y11000D01*
X232000D01*
Y15000D01*
D02*
G37*
G36*
X223092Y20000D02*
X221908D01*
X220763Y19693D01*
X219737Y19101D01*
X218899Y18263D01*
X218307Y17237D01*
X218000Y16092D01*
Y14908D01*
X218307Y13763D01*
X218899Y12737D01*
X219737Y11899D01*
X220763Y11307D01*
X221908Y11000D01*
X223092D01*
X224237Y11307D01*
X225263Y11899D01*
X226101Y12737D01*
X226693Y13763D01*
X227000Y14908D01*
Y16092D01*
X226693Y17237D01*
X226101Y18263D01*
X225263Y19101D01*
X224237Y19693D01*
X223092Y20000D01*
D02*
G37*
%LPD*%
D16*
X59000Y58000D02*
X70000D01*
X112000Y45500D02*
Y59500D01*
D31*
X59622Y176000D02*
D03*
X36000D02*
D03*
D32*
X49779Y157693D02*
D03*
D33*
X40000Y132500D02*
D03*
X50000D02*
D03*
X20000D02*
D03*
X30000D02*
D03*
X242500Y15500D02*
D03*
X252500D02*
D03*
X222500D02*
D03*
X232500D02*
D03*
X170000Y60000D02*
D03*
Y70000D02*
D03*
Y40000D02*
D03*
Y50000D02*
D03*
D34*
X104000Y110000D02*
D03*
Y120000D02*
D03*
X170000Y100000D02*
D03*
X160000D02*
D03*
D35*
X59000Y58000D02*
D03*
X112000Y45500D02*
D03*
Y59500D02*
D03*
X70000Y58000D02*
D03*
X138000Y77500D02*
D03*
X90000Y162000D02*
D03*
X39000Y41000D02*
D03*
X150000Y162000D02*
D03*
X67500Y77500D02*
D03*
X312500Y40500D02*
D03*
X282500D02*
D03*
X252500D02*
D03*
X222500D02*
D03*
M02*
