M48
;Layer_Color=9474304
;FILE_FORMAT=2:5
INCH,LZ
;TYPE=PLATED
T01F00S00C0.01300
T03F00S00C0.04000
T04F00S00C0.04016
%
T01
X0039Y0041
X02225Y00405
X02525
X02825
X03125
X0138Y00775
X0121Y00675
X01115
X00675Y00775
X006Y00725
X009Y0162
X015
X00509Y00606
T03
X017Y004
Y005
X02225Y00155
X02325
X02425
X02525
X017Y006
Y007
X005Y01325
X004
X003
X002
T04
X0104Y011
Y012
X016Y01
X017
M30
