G04*
G04 #@! TF.GenerationSoftware,Altium Limited,Altium Designer,25.2.1 (25)*
G04*
G04 Layer_Color=2752767*
%FSLAX25Y25*%
%MOIN*%
G70*
G04*
G04 #@! TF.SameCoordinates,7AEDDAFA-F4C1-4ABB-908B-76DA138DF952*
G04*
G04*
G04 #@! TF.FilePolarity,Positive*
G04*
G01*
G75*
%ADD13C,0.00500*%
%ADD36C,0.00667*%
D13*
X49779Y155693D02*
X47780Y159693D01*
X51780D01*
X49779Y155693D01*
X40000Y130500D02*
X41000Y131500D01*
X42000D01*
X41000Y132500D01*
X42000Y133500D01*
X41000D01*
X40000Y134500D01*
X39000Y133500D01*
X38000D01*
X39000Y132500D01*
X38000Y131500D01*
X39000D01*
X40000Y130500D01*
X50000D02*
X51000Y131500D01*
X52000D01*
X51000Y132500D01*
X52000Y133500D01*
X51000D01*
X50000Y134500D01*
X49000Y133500D01*
X48000D01*
X49000Y132500D01*
X48000Y131500D01*
X49000D01*
X50000Y130500D01*
X20000D02*
X21000Y131500D01*
X22000D01*
X21000Y132500D01*
X22000Y133500D01*
X21000D01*
X20000Y134500D01*
X19000Y133500D01*
X18000D01*
X19000Y132500D01*
X18000Y131500D01*
X19000D01*
X20000Y130500D01*
X30000D02*
X31000Y131500D01*
X32000D01*
X31000Y132500D01*
X32000Y133500D01*
X31000D01*
X30000Y134500D01*
X29000Y133500D01*
X28000D01*
X29000Y132500D01*
X28000Y131500D01*
X29000D01*
X30000Y130500D01*
X102000Y108000D02*
Y112000D01*
X106000D01*
Y108000D01*
X102000D01*
Y118000D02*
Y122000D01*
X106000D01*
Y118000D01*
X102000D01*
X168000Y98000D02*
Y102000D01*
X172000D01*
Y98000D01*
X168000D01*
X158000D02*
Y102000D01*
X162000D01*
Y98000D01*
X158000D01*
X242500Y13500D02*
X243500Y14500D01*
X244500D01*
X243500Y15500D01*
X244500Y16500D01*
X243500D01*
X242500Y17500D01*
X241500Y16500D01*
X240500D01*
X241500Y15500D01*
X240500Y14500D01*
X241500D01*
X242500Y13500D01*
X252500D02*
X253500Y14500D01*
X254500D01*
X253500Y15500D01*
X254500Y16500D01*
X253500D01*
X252500Y17500D01*
X251500Y16500D01*
X250500D01*
X251500Y15500D01*
X250500Y14500D01*
X251500D01*
X252500Y13500D01*
X222500D02*
X223500Y14500D01*
X224500D01*
X223500Y15500D01*
X224500Y16500D01*
X223500D01*
X222500Y17500D01*
X221500Y16500D01*
X220500D01*
X221500Y15500D01*
X220500Y14500D01*
X221500D01*
X222500Y13500D01*
X232500D02*
X233500Y14500D01*
X234500D01*
X233500Y15500D01*
X234500Y16500D01*
X233500D01*
X232500Y17500D01*
X231500Y16500D01*
X230500D01*
X231500Y15500D01*
X230500Y14500D01*
X231500D01*
X232500Y13500D01*
X170000Y58000D02*
X171000Y59000D01*
X172000D01*
X171000Y60000D01*
X172000Y61000D01*
X171000D01*
X170000Y62000D01*
X169000Y61000D01*
X168000D01*
X169000Y60000D01*
X168000Y59000D01*
X169000D01*
X170000Y58000D01*
Y68000D02*
X171000Y69000D01*
X172000D01*
X171000Y70000D01*
X172000Y71000D01*
X171000D01*
X170000Y72000D01*
X169000Y71000D01*
X168000D01*
X169000Y70000D01*
X168000Y69000D01*
X169000D01*
X170000Y68000D01*
Y38000D02*
X171000Y39000D01*
X172000D01*
X171000Y40000D01*
X172000Y41000D01*
X171000D01*
X170000Y42000D01*
X169000Y41000D01*
X168000D01*
X169000Y40000D01*
X168000Y39000D01*
X169000D01*
X170000Y38000D01*
Y48000D02*
X171000Y49000D01*
X172000D01*
X171000Y50000D01*
X172000Y51000D01*
X171000D01*
X170000Y52000D01*
X169000Y51000D01*
X168000D01*
X169000Y50000D01*
X168000Y49000D01*
X169000D01*
X170000Y48000D01*
X48900Y58600D02*
X49900Y60600D01*
X48900Y62600D01*
X50900Y61600D01*
X52900Y62600D01*
X51900Y60600D01*
X52900Y58600D01*
X50900Y59600D01*
X48900Y58600D01*
X119000Y65500D02*
X120000Y67500D01*
X119000Y69500D01*
X121000Y68500D01*
X123000Y69500D01*
X122000Y67500D01*
X123000Y65500D01*
X121000Y66500D01*
X119000Y65500D01*
X58000Y70500D02*
X59000Y72500D01*
X58000Y74500D01*
X60000Y73500D01*
X62000Y74500D01*
X61000Y72500D01*
X62000Y70500D01*
X60000Y71500D01*
X58000Y70500D01*
X109500Y65500D02*
X110500Y67500D01*
X109500Y69500D01*
X111500Y68500D01*
X113500Y69500D01*
X112500Y67500D01*
X113500Y65500D01*
X111500Y66500D01*
X109500Y65500D01*
X136000Y75500D02*
X137000Y77500D01*
X136000Y79500D01*
X138000Y78500D01*
X140000Y79500D01*
X139000Y77500D01*
X140000Y75500D01*
X138000Y76500D01*
X136000Y75500D01*
X88000Y160000D02*
X89000Y162000D01*
X88000Y164000D01*
X90000Y163000D01*
X92000Y164000D01*
X91000Y162000D01*
X92000Y160000D01*
X90000Y161000D01*
X88000Y160000D01*
X37000Y39000D02*
X38000Y41000D01*
X37000Y43000D01*
X39000Y42000D01*
X41000Y43000D01*
X40000Y41000D01*
X41000Y39000D01*
X39000Y40000D01*
X37000Y39000D01*
X148000Y160000D02*
X149000Y162000D01*
X148000Y164000D01*
X150000Y163000D01*
X152000Y164000D01*
X151000Y162000D01*
X152000Y160000D01*
X150000Y161000D01*
X148000Y160000D01*
X65500Y75500D02*
X66500Y77500D01*
X65500Y79500D01*
X67500Y78500D01*
X69500Y79500D01*
X68500Y77500D01*
X69500Y75500D01*
X67500Y76500D01*
X65500Y75500D01*
X310500Y38500D02*
X311500Y40500D01*
X310500Y42500D01*
X312500Y41500D01*
X314500Y42500D01*
X313500Y40500D01*
X314500Y38500D01*
X312500Y39500D01*
X310500Y38500D01*
X280500D02*
X281500Y40500D01*
X280500Y42500D01*
X282500Y41500D01*
X284500Y42500D01*
X283500Y40500D01*
X284500Y38500D01*
X282500Y39500D01*
X280500Y38500D01*
X250500D02*
X251500Y40500D01*
X250500Y42500D01*
X252500Y41500D01*
X254500Y42500D01*
X253500Y40500D01*
X254500Y38500D01*
X252500Y39500D01*
X250500Y38500D01*
X220500D02*
X221500Y40500D01*
X220500Y42500D01*
X222500Y41500D01*
X224500Y42500D01*
X223500Y40500D01*
X224500Y38500D01*
X222500Y39500D01*
X220500Y38500D01*
D36*
X61622Y176000D02*
G03*
X61622Y176000I-2000J0D01*
G01*
X38000D02*
G03*
X38000Y176000I-2000J0D01*
G01*
M02*
