G04*
G04 #@! TF.GenerationSoftware,Altium Limited,Altium Designer,25.2.1 (25)*
G04*
G04 Layer_Color=128*
%FSLAX25Y25*%
%MOIN*%
G70*
G04*
G04 #@! TF.SameCoordinates,0948289B-1814-4A6B-8373-F98A4FA54AF5*
G04*
G04*
G04 #@! TF.FilePolarity,Positive*
G04*
G01*
G75*
%ADD18C,0.00500*%
D18*
X38000Y132500D02*
X42000D01*
X40000Y130500D02*
Y134500D01*
X48000Y132500D02*
X52000D01*
X50000Y130500D02*
Y134500D01*
X18000Y132500D02*
X22000D01*
X20000Y130500D02*
Y134500D01*
X28000Y132500D02*
X32000D01*
X30000Y130500D02*
Y134500D01*
X101992Y110000D02*
X106008D01*
X104000Y107992D02*
Y112008D01*
X101992Y120000D02*
X106008D01*
X104000Y117992D02*
Y122008D01*
X167992Y100000D02*
X172008D01*
X170000Y97992D02*
Y102008D01*
X157992Y100000D02*
X162008D01*
X160000Y97992D02*
Y102008D01*
X240500Y15500D02*
X244500D01*
X242500Y13500D02*
Y17500D01*
X250500Y15500D02*
X254500D01*
X252500Y13500D02*
Y17500D01*
X220500Y15500D02*
X224500D01*
X222500Y13500D02*
Y17500D01*
X230500Y15500D02*
X234500D01*
X232500Y13500D02*
Y17500D01*
X47811Y157693D02*
X51748D01*
X49779Y155724D02*
Y159661D01*
X33638Y176000D02*
X38362D01*
X36000Y173638D02*
Y178362D01*
X57260Y176000D02*
X61984D01*
X59622Y173638D02*
Y178362D01*
X168000Y60000D02*
X172000D01*
X170000Y58000D02*
Y62000D01*
X168000Y70000D02*
X172000D01*
X170000Y68000D02*
Y72000D01*
X168000Y40000D02*
X172000D01*
X170000Y38000D02*
Y42000D01*
X168000Y50000D02*
X172000D01*
X170000Y48000D02*
Y52000D01*
X50250Y60600D02*
X51550D01*
X50900Y59950D02*
Y61250D01*
X120350Y67500D02*
X121650D01*
X121000Y66850D02*
Y68150D01*
X59350Y72500D02*
X60650D01*
X60000Y71850D02*
Y73150D01*
X110850Y67500D02*
X112150D01*
X111500Y66850D02*
Y68150D01*
X137350Y77500D02*
X138650D01*
X138000Y76850D02*
Y78150D01*
X89350Y162000D02*
X90650D01*
X90000Y161350D02*
Y162650D01*
X38350Y41000D02*
X39650D01*
X39000Y40350D02*
Y41650D01*
X149350Y162000D02*
X150650D01*
X150000Y161350D02*
Y162650D01*
X66850Y77500D02*
X68150D01*
X67500Y76850D02*
Y78150D01*
X311850Y40500D02*
X313150D01*
X312500Y39850D02*
Y41150D01*
X281850Y40500D02*
X283150D01*
X282500Y39850D02*
Y41150D01*
X251850Y40500D02*
X253150D01*
X252500Y39850D02*
Y41150D01*
X221850Y40500D02*
X223150D01*
X222500Y39850D02*
Y41150D01*
M02*
